<?xml version="1.0" standalone="no"?>
<!DOCTYPE svg PUBLIC "-//W3C//DTD SVG 1.1//EN" "http://www.w3.org/Graphics/SVG/1.1/DTD/svg11.dtd" >
<svg xmlns="http://www.w3.org/2000/svg">
<metadata>
Created by FontForge 20110222 at Mon May  6 20:55:10 2013
 By root
Copyright (C) 2012 by original authors @ fontello.com
</metadata>
<defs>
<font id="fontello" horiz-adv-x="1030" >
  <font-face 
    font-family="fontello"
    font-weight="500"
    font-stretch="normal"
    units-per-em="1000"
    panose-1="2 0 6 3 0 0 0 0 0 0"
    ascent="850"
    descent="-150"
    bbox="-0.756098 -191 1640 851.778"
    underline-thickness="50"
    underline-position="-100"
    unicode-range="U+0021-1F6AB"
  />
<missing-glyph horiz-adv-x="364" 
d="M33 0v666h265v-666h-265zM66 33h199v600h-199v-600z" />
    <glyph glyph-name=".notdef" horiz-adv-x="364" 
d="M33 0v666h265v-666h-265zM66 33h199v600h-199v-600z" />
    <glyph glyph-name=".null" horiz-adv-x="0" 
 />
    <glyph glyph-name="nonmarkingreturn" horiz-adv-x="333" 
 />
    <glyph glyph-name="exclam" unicode="!" 
d="M15 318q0 13 9 21.5t22 8.5h250q14 0 23 -8.5t9 -21.5t-9.5 -22.5t-22.5 -9.5h-250q-13 0 -22 9.5t-9 22.5zM15 443q0 13 9 21.5t22 8.5h125q13 0 22 -8.5t9 -21.5t-9 -22.5t-22 -9.5h-125q-13 0 -22 9.5t-9 22.5zM78 568q0 13 9 21.5t22 8.5h125q13 0 22 -8.5t9 -21.5
t-9 -22.5t-22 -9.5h-125q-13 0 -22 9.5t-9 22.5zM1015 518q0 -82 -56.5 -138.5t-138.5 -56.5q-14 0 -34 2q-63 -39 -135 -39q-73 0 -136 39q-20 -2 -35 -2q-81 0 -137 56q-57 57 -57 139q0 78 55 134t131 59q74 77 179 77q104 0 178 -77q76 -3 131 -59t55 -134zM515 38
q-26 0 -44.5 18.5t-18.5 43.5q0 35 63 125l16 -23q17 -26 31 -55q16 -34 16 -47q0 -25 -18.5 -43.5t-44.5 -18.5zM702 -25q0 35 63 125l16 -23q17 -26 31 -55q16 -34 16 -47q0 -25 -19 -44t-44 -19t-44 19t-19 44z" />
    <glyph glyph-name="quotedbl" unicode="&#x22;" 
d="M515 850q80 0 145 -35t105 -92q18 2 31 2q91 0 155 -64t64 -155q0 -90 -64 -154t-155 -64q-43 0 -78 13q-88 -76 -203 -76t-203 76q-35 -13 -78 -13q-91 0 -155 64t-64 154q0 91 64 155t155 64q13 0 31 -2q40 57 105 92t145 35zM515 -150q-14 0 -24.5 10t-10.5 25v41
q-18 7 -31 18l-36 -20q-21 -11 -39 1.5t-11 36.5q5 16 15 21l35 21q-3 18 0 37l-35 20q-27 19 -12 48q6 12 19 16t28 -4l36 -21q15 14 31 20v41q0 13 11 24t24 11t24 -11t11 -24v-41q16 -6 31 -20l36 21q21 11 39 -2t11 -37q-5 -15 -15 -21l-35 -20q3 -19 0 -37l35 -21
q10 -6 14.5 -19.5t-2.5 -27.5q-16 -27 -47 -12l-36 20q-13 -11 -31 -18v-41q0 -15 -10.5 -25t-24.5 -10zM480 23q0 -14 10.5 -24t24.5 -10t24.5 10.5t10.5 23.5q0 14 -10.5 24t-24.5 10t-24.5 -10t-10.5 -24z" />
    <glyph glyph-name="numbersign" unicode="#" 
d="M515 850q80 0 145 -35t105 -92q18 2 31 2q91 0 155 -64t64 -155q0 -90 -64 -154t-155 -64q-43 0 -78 13q-88 -76 -203 -76t-203 76q-35 -13 -78 -13q-91 0 -155 64t-64 154q0 91 64 155t155 64q13 0 31 -2q40 57 105 92t145 35zM208 190q10 -6 16 -16l23 8q20 3 26 -16
t-16 -25l-23 -6q0 -11 -6 -21l17 -18q16 -14 1 -28q-15 -15 -30 -1l-15 17q-3 -1 -10.5 -2.5t-11.5 -2.5l-8 -24q-5 -21 -24 -15q-21 5 -15 27l6 23q-6 2 -16 16l-23 -8q-20 -3 -24 16t14 25l24 6q0 11 6 21l-18 18q-14 14 0 28t29 1l18 -17q9 3 21 6l6 23q6 20 26 14
q19 -6 13 -26zM159 125q9 -9 20.5 -5t14 13.5t-6.5 19.5q-14 16 -28 1q-15 -15 0 -29zM515 -150q-14 0 -24.5 10t-10.5 25v41q-18 7 -31 18l-36 -20q-21 -11 -39 1.5t-11 36.5q5 16 15 21l35 21q-3 18 0 37l-35 20q-27 19 -12 48q6 12 19 16t28 -4l36 -21q15 14 31 20v41
q0 13 11 24t24 11t24 -11t11 -24v-41q16 -6 31 -20l36 21q21 11 39 -2t11 -37q-5 -15 -15 -21l-35 -20q3 -19 0 -37l35 -21q10 -6 14.5 -19.5t-2.5 -27.5q-16 -27 -47 -12l-36 20q-13 -11 -31 -18v-41q0 -15 -10.5 -25t-24.5 -10zM480 23q0 -14 10.5 -24t24.5 -10t24.5 10.5
t10.5 23.5q0 14 -10.5 24t-24.5 10t-24.5 -10t-10.5 -24zM806 112q5 9 16 15l-6 24q-6 19 13 25q20 6 26 -14l6 -23q12 -3 21 -6l18 18q15 13 29 -1.5t0 -28.5l-18 -17q6 -10 6 -22l24 -5q19 -6 14 -26q-4 -18 -24 -15l-23 7q-9 -12 -16 -15l6 -24q6 -21 -15 -26
q-19 -6 -24 15l-8 23q-16 4 -22 6l-15 -18q-15 -14 -30 1q-16 14 1 29l17 17q-6 9 -6 22l-23 6q-22 6 -16 25q6 20 26 14zM842 63q9 -9 20.5 -5.5t14 13t-6.5 19.5q-14 16 -28 1q-15 -15 0 -28z" />
    <glyph glyph-name="dollar" unicode="$" 
d="M515 850q80 0 145 -35t105 -92q18 2 31 2q91 0 155 -64t64 -155q0 -90 -64 -154t-155 -64q-43 0 -78 13q-88 -76 -203 -76t-203 76q-35 -13 -78 -13q-91 0 -155 64t-64 154q0 91 64 155t155 64q13 0 31 -2q40 57 105 92t145 35zM140 162q0 26 18.5 44.5t43.5 18.5
q24 0 43.5 -19.5t19.5 -43.5q0 -25 -18.5 -43.5t-44.5 -18.5t-44 18t-18 44zM265 -88q0 26 18.5 44.5t44.5 18.5q24 0 43 -19.5t19 -43.5q0 -26 -18 -44t-44 -18t-44.5 18.5t-18.5 43.5zM452 100q0 25 18.5 43.5t44.5 18.5q24 0 43.5 -19t19.5 -43q0 -25 -18.5 -43.5
t-44.5 -18.5t-44.5 18.5t-18.5 43.5zM640 -88q0 26 18.5 44.5t43.5 18.5q24 0 43.5 -19.5t19.5 -43.5q0 -25 -18.5 -43.5t-44.5 -18.5t-44 18t-18 44zM765 162q0 26 18.5 44.5t44.5 18.5q24 0 42 -20q20 -18 20 -43q0 -26 -18 -44t-44 -18t-44.5 18.5t-18.5 43.5z" />
    <glyph glyph-name="percent" unicode="%" 
d="M15 234q0 91 64 155q65 65 155 65q16 0 31 -4l1 2q1 2 1 3q-2 20 -2 30q0 69 51 122q51 52 123 52q5 0 13 -2q71 89 188 89t188 -89q8 2 13 2q72 0 123 -52t51 -122q0 -67 -47 -117q47 -61 47 -133q0 -93 -64 -156q-65 -63 -155 -63q-41 0 -78 14q-88 -76 -203 -76
t-203 76q-37 -14 -78 -14q-91 0 -155 63t-64 155z" />
    <glyph glyph-name="parenleft" unicode="(" 
d="M161 704q146 146 354 146t354 -146t146 -354t-146 -354t-354 -146t-354 146t-146 354t146 354zM250 85q110 -110 265 -110t264 109q111 111 111 266t-110 265t-265 110t-265 -110t-110 -265t110 -265zM328 162l124 250l250 126l-124 -250z" />
    <glyph glyph-name="parenright" unicode=")" horiz-adv-x="827" 
d="M15 524h63q83 -119 144 -219h2v219h68v-344h-62l-86 129l-59 88h-2v-217h-68v344zM443 541h51l-127 -382h-51zM622 524h71l119 -344h-74l-22 70h-119l-23 -70h-73zM615 307h84q-7 22 -20.5 67t-20.5 68h-2q-31 -100 -41 -135z" />
    <glyph glyph-name="plus" unicode="+" horiz-adv-x="610" 
d="M565 400q30 0 30 -50t-30 -50h-210v-210q0 -30 -50 -30t-50 30v210h-210q-30 0 -30 50t30 50h210v210q0 30 50 30t50 -30v-210h210z" />
    <glyph glyph-name="hyphen" unicode="-" horiz-adv-x="610" 
d="M565 400q30 0 30 -50t-30 -50h-520q-30 0 -30 50t30 50h520z" />
    <glyph glyph-name="one" unicode="1" horiz-adv-x="842" 
d="M15 350q0 14 8.5 22.5t22.5 8.5h63q13 0 22 -8.5t9 -22.5t-9 -22.5t-22 -8.5h-63q-14 0 -22.5 8.5t-8.5 22.5zM134 108l45 43q21 21 43 0t0 -43l-43 -45q-24 -21 -45 0t0 45zM134 592q-21 24 0 45t45 0l43 -45q22 -22 0 -43t-43 0zM267 504q65 65 154 65q90 0 155 -65
q64 -64 64 -154t-64 -154q-65 -65 -155 -65q-89 0 -154 65t-65 154t65 154zM421 -56q-13 0 -22 9t-9 22v63q0 14 9 22.5t22 8.5t22 -8.5t9 -22.5v-63q0 -13 -9 -22t-22 -9zM421 631q-13 0 -22 8.5t-9 22.5v63q0 13 9 22t22 9t22 -9t9 -22v-63q0 -14 -9 -22.5t-22 -8.5z
M663 151l45 -43q21 -24 0 -45t-45 0l-43 45q-24 21 -1 43q23 21 44 0zM620 592l43 45q24 21 45 0t0 -45l-45 -43q-21 -21 -44 0q-23 22 1 43zM702 350q0 13 9 22t23 9h62q14 0 23 -9t9 -22t-9 -22t-23 -9h-62q-14 0 -23 9t-9 22z" />
    <glyph glyph-name="two" unicode="2" horiz-adv-x="456" 
d="M15 357q0 91 64 155q36 33 82 51q-21 -73 -5.5 -130.5t56.5 -98.5t99 -56t130 6q-18 -46 -51 -82q-65 -65 -155 -65q-91 0 -156 65q-64 64 -64 155z" />
    <glyph glyph-name="three" unicode="3" 
d="M77 283q61 63 149 67q-24 45 -24 94q0 89 65 154q64 64 154 64q91 0 154 -62q62 -61 65 -152q76 -34 125 -100q18 2 31 2q91 0 155 -64t64 -155q0 -90 -64 -154q-65 -65 -155 -65q-41 0 -78 14q-88 -76 -203 -76t-203 76q-37 -14 -78 -14q-90 0 -155 65q-64 64 -64 154
q0 88 62 152zM15 444q0 14 8.5 22.5t22.5 8.5h63q13 0 22 -8.5t9 -22.5t-9 -23t-22 -9h-63q-13 0 -22 9t-9 23zM134 686q-21 24 0 45t45 0l43 -45q22 -22 0 -43t-43 0zM421 600q-64 0 -110 -46t-46 -110q0 -38 20 -73q92 104 230 104q28 0 61 -6q-9 55 -52.5 93t-102.5 38z
M421 725q-13 0 -22 8.5t-9 22.5v63q0 13 9 22t22 9t22 -9t9 -22v-63q0 -14 -9 -22.5t-22 -8.5zM620 686l43 45q24 21 45 0t0 -45l-45 -43q-21 -21 -43 0t0 43zM702 444q0 13 9 22t23 9h62q14 0 23 -9t9 -22q0 -14 -9 -23t-23 -9h-62q-14 0 -23 9t-9 23z" />
    <glyph glyph-name="four" unicode="4" 
d="M865 338q64 -20 107 -76.5t43 -130.5q0 -90 -64 -154q-65 -65 -155 -65q-41 0 -78 14q-88 -76 -203 -76t-203 76q-37 -14 -78 -14q-90 0 -155 65q-64 64 -64 154q0 91 64 155t155 64q13 0 31 -2q77 107 211 125q-20 69 0 133.5t62 106.5q39 39 94 59q19 7 33 -7t8 -32
q-32 -85 12 -156.5t121 -89.5q52 -12 105 8q18 6 32.5 -8.5t7.5 -32.5q-27 -75 -86 -116zM533 577q-12 -57 7 -104q135 -9 219 -117q66 15 104 64q-112 -6 -192 74q-79 79 -72 190q-51 -39 -66 -107z" />
    <glyph glyph-name="five" unicode="5" 
d="M15 319q0 90 64 154q65 65 155 65q13 0 31 -2q40 56 105 91t145 35t145 -35t105 -91q18 2 31 2q90 0 155 -65q64 -64 64 -154q0 -91 -64 -155t-155 -64q-41 0 -78 14q-88 -76 -203 -76t-203 76q-37 -14 -78 -14q-91 0 -155 64t-64 155z" />
    <glyph glyph-name="seven" unicode="7" 
d="M515 788q80 0 145 -35t105 -92q9 1 31 1q91 0 155 -64t64 -154q0 -91 -64 -155t-155 -64q-41 0 -78 14q-89 -77 -203 -77t-203 77q-37 -14 -78 -14q-91 0 -155 64t-64 155q0 90 64 154t155 64q22 0 31 -1q40 57 105 92t145 35zM452 -25q0 35 63 125l16 -23q17 -26 31 -55
q16 -34 16 -47q0 -25 -19 -44t-44 -19t-44 19t-19 44z" />
    <glyph glyph-name="eight" unicode="8" 
d="M515 850q80 0 145 -35t105 -92q18 2 31 2q91 0 155 -64t64 -155q0 -90 -64 -154t-155 -64q-43 0 -78 13q-88 -76 -203 -76t-203 76q-35 -13 -78 -13q-91 0 -155 64t-64 154q0 91 64 155t155 64q13 0 31 -2q40 57 105 92t145 35zM265 38q-26 0 -44.5 18.5t-18.5 43.5
q0 35 63 125l16 -23q17 -26 31 -55q16 -34 16 -47q0 -25 -18.5 -43.5t-44.5 -18.5zM517 -150q-26 0 -44.5 18.5t-18.5 43.5q0 36 63 126l16 -24q17 -26 31 -55q15 -31 15 -47q0 -26 -18.5 -44t-43.5 -18zM702 -25q0 35 63 125l16 -23q17 -26 31 -55q16 -34 16 -47
q0 -25 -19 -44t-44 -19t-44 19t-19 44z" />
    <glyph glyph-name="nine" unicode="9" 
d="M15 131q0 13 8.5 22t22.5 9h250q14 0 23 -9t9 -22t-9 -22t-23 -9h-250q-14 0 -22.5 9t-8.5 22zM15 256q0 14 9 23t22 9h125q13 0 22 -9t9 -23t-9 -22.5t-22 -8.5h-125q-14 0 -22.5 8.5t-8.5 22.5zM78 381q0 13 9 22t22 9h125q14 0 22.5 -9t8.5 -22t-8.5 -22t-22.5 -9
h-125q-13 0 -22 9t-9 22zM286 330q0 78 55 135.5t131 60.5q73 76 179 76q105 0 178 -76q76 -3 131 -60.5t55 -135.5q0 -79 -57 -136t-138 -57q-14 0 -34 2q-64 -41 -135 -41q-72 0 -136 41q-20 -2 -35 -2q-80 0 -137 57t-57 136z" />
    <glyph glyph-name="uni2139" unicode="&#x2139;" horiz-adv-x="490" 
d="M367 850q46 0 73 -26t27 -70q0 -51 -40 -88.5t-94 -37.5q-47 0 -73.5 25.5t-24.5 72.5q0 45 35 85q34 39 97 39zM161 -150q-100 0 -54 178l60 254q14 56 0 56q-12 0 -54 -18q-40 -17 -72 -38l-26 44q90 78 189 126t151 48q78 0 36 -162l-70 -266q-16 -64 6 -64
q45 0 118 60l30 -40q-84 -86 -175 -132t-139 -46z" />
    <glyph glyph-name="uni229E" unicode="&#x229e;" horiz-adv-x="830" 
d="M715 750q42 0 71 -29t29 -71v-600q0 -41 -29.5 -70.5t-70.5 -29.5h-600q-40 0 -70 30t-30 70v600q0 41 29.5 70.5t70.5 29.5h600zM665 300v100h-200v200h-100v-200h-200v-100h200v-200h100v200h200z" />
    <glyph glyph-name="uni229F" unicode="&#x229f;" horiz-adv-x="830" 
d="M715 750q42 0 71 -29t29 -71v-600q0 -41 -29.5 -70.5t-70.5 -29.5h-600q-40 0 -70 30t-30 70v600q0 41 29.5 70.5t70.5 29.5h600zM665 300v100h-500v-100h500z" />
    <glyph glyph-name="house" unicode="&#x2302;" horiz-adv-x="930" 
d="M768 707q8 0 13 -5.5t5 -12.5v-227l122 -102q13 -11 3 -25l-35 -41q-4 -4 -12 -6h-1q-9 0 -12 3l-386 322l-386 -322q-14 -10 -25 3l-35 41q-4 5 -4 13t6 12l401 334q18 15 43 15q24 0 42 -15l136 -114v109q0 7 5.5 12.5t12.5 5.5h107zM143 29v267l1 2v2l321 264
l321 -264v-4v-267q0 -14 -10.5 -25t-24.5 -11h-215v214h-143v-214h-214q-14 0 -25 11t-11 25z" />
    <glyph glyph-name="uni2605" unicode="&#x2605;" horiz-adv-x="910" 
d="M455 790l120 -336h320l-262 -196l94 -348l-272 208l-272 -208l94 348l-262 196h320z" />
    <glyph glyph-name="uni2606" unicode="&#x2606;" horiz-adv-x="910" 
d="M633 258l94 -348l-272 208l-272 -208l94 348l-262 196h320l120 336l120 -336h320zM455 216l150 -124l-62 178l144 114l-176 -4l-56 202l-54 -202l-176 4l142 -114l-62 -178z" />
    <glyph glyph-name="uni2630" unicode="&#x2630;" horiz-adv-x="730" 
d="M665 400q21 0 35.5 -15t14.5 -35t-15.5 -35t-34.5 -15h-600q-19 0 -34.5 15t-15.5 35t14.5 35t35.5 15h600zM65 500q-19 0 -34.5 15t-15.5 35t14.5 35t35.5 15h600q21 0 35.5 -15t14.5 -35t-15.5 -35t-34.5 -15h-600zM665 200q21 0 35.5 -15t14.5 -35t-15.5 -35
t-34.5 -15h-600q-19 0 -34.5 15t-15.5 35t14.5 35t35.5 15h600z" />
    <glyph glyph-name="uni2661" unicode="&#x2661;" horiz-adv-x="890" 
d="M875 486q0 -92 -70 -156l-360 -330l-360 330q-70 64 -70 156t70 156q64 58 152 58q89 0 150 -58l58 -52l56 52q64 58 152 58t152 -58q70 -64 70 -156zM751 382q42 40 42 104q0 65 -38 100q-38 38 -102 38q-51 0 -104 -48l-104 -92l-106 92q-48 48 -102 48q-64 0 -103 -37
t-39 -101q0 -66 44 -104l306 -286z" />
    <glyph glyph-name="heart" unicode="&#x2665;" horiz-adv-x="890" 
d="M805 644q70 -64 70 -156t-70 -158l-360 -330l-360 330q-70 66 -70 158t70 156q61 58 151 58q89 0 153 -58l56 -52l58 52q61 58 150 58q88 0 152 -58z" />
    <glyph glyph-name="uni2692" unicode="&#x2692;" 
d="M170 506q-14 -14 -14 -47q0 -11 -2 -11q-1 -1 -18 -16t-18 -16q-16 -13 -28 4l-70 76q-3 4 -4 8t-0.5 7t4 6.5t6 5.5t7.5 5.5t7 5.5q15 11 20 16q6 6 27 6q22 0 36.5 14.5t18.5 37.5q5 25 10 30q2 0 9 7q18 18 67 53q134 90 186 96q114 0 148 -2q13 0 -8 -8
q-123 -54 -152 -76q-80 -56 -36 -114q35 -47 38 -48q8 -8 -2 -14q-8 -8 -38 -35t-38 -35q-14 -8 -18 -4q-42 48 -71 60t-67 -12zM866 4q17 -22 -2 -38l-48 -42q-22 -13 -38 4l-414 472q-8 8 0 20l72 62q13 8 20 -2zM994 516q-49 -88 -154 -62q-56 12 -100 -32l-82 -78
l-68 78l68 70q40 40 37 118q-1 34 5 58q12 56 140 112q12 6 18 -3t2 -15q-10 -10 -46 -80q-13 -10 -12 -35q1 -24 40 -53q58 -40 96 22q2 4 24.5 38t23.5 36q4 10 13 9q10 -2 11 -17q16 -103 -16 -166zM152 -2l254 248l76 -86l-246 -242q-20 -20 -38 -4l-46 46q-23 18 0 38z
" />
    <glyph glyph-name="uni2699" unicode="&#x2699;" horiz-adv-x="870" 
d="M855 228q-12 -41 -34 -82q-70 18 -136 -44q-54 -58 -34 -136q-41 -20 -84 -36q-46 82 -132 82t-132 -82q-43 16 -84 36q20 81 -34 136q-53 54 -136 34q-15 29 -34 82q82 52 82 132q0 72 -82 124q19 53 34 82q74 -18 136 44q54 55 34 136q40 21 84 34q47 -80 132 -80
t132 80q44 -13 84 -34q-20 -78 34 -136q66 -62 136 -44q22 -41 34 -82q-80 -50 -80 -124q0 -72 80 -122zM435 168q76 0 129 53t53 129q0 75 -53.5 129.5t-128.5 54.5t-128.5 -54.5t-53.5 -129.5q0 -76 53 -129t129 -53z" />
    <glyph glyph-name="uni26A0" unicode="&#x26a0;" horiz-adv-x="992" 
d="M972 -24q10 -16 0 -34q-10 -16 -30 -16h-892q-17 0 -28.5 17t-1.5 33l446 782q8 18 30 18t30 -18zM552 126h-110v-100h110v100zM552 200v300h-110v-300h110z" />
    <glyph glyph-name="uni26EF" unicode="&#x26ef;" horiz-adv-x="1101" 
d="M15 402q0 15 13 17l86 14q6 19 18 42q-23 32 -50 64q-4 5 -4 11q0 7 4 11q11 15 45 49t45 34q7 0 12 -4l64 -50q20 11 43 18q5 53 13 86q4 13 16 13h104q15 0 17 -14l13 -85q22 -7 41 -17l66 49q4 4 11 4t12 -4q81 -73 81 -90q0 -5 -4 -10q-3 -4 -23.5 -30.5t-25.5 -33.5
q13 -25 19 -46l85 -12q13 -2 13 -17v-103q0 -15 -13 -17l-86 -14q-6 -19 -18 -42q23 -32 50 -64q4 -5 4 -11q0 -7 -4 -11q-14 -17 -46.5 -50t-43.5 -33q-6 0 -11 4l-64 50q-24 -12 -43 -17q-6 -55 -13 -87q-4 -13 -17 -13h-104q-14 0 -16 14l-13 85q-24 7 -42 17l-66 -49
q-4 -4 -11 -4t-12 4q-80 73 -80 90q0 5 4 10t24.5 32t24.5 32q-14 25 -20 46l-85 13q-13 2 -13 16v103zM229 350q0 -58 42.5 -100.5t100.5 -42.5t100.5 42.5t42.5 100.5t-42.5 100.5t-100.5 42.5t-100.5 -42.5t-42.5 -100.5zM855 -77q-5 -9 -27 -37t-27 -28l-7 4
q-7 4 -25.5 15t-36.5 21q-3 3 -3 4q0 13 29 77q-11 14 -17 29q-83 9 -83 17v78q0 9 83 18q5 11 17 29q-29 64 -29 77q0 2 1 3.5t3 2.5t4.5 2t6.5 3t7 4q5 3 16 9.5t17 9.5q15 9 17 9q5 0 27 -28t27 -36q7 1 17 1t17 -1q33 45 51 63l4 1q2 0 69 -39q2 -2 2 -4q0 -15 -28 -77
q9 -13 16 -29q83 -9 83 -18v-78q0 -8 -83 -17q-7 -17 -16 -29q28 -62 28 -77q0 -2 -2 -4q-18 -10 -36.5 -21t-25.5 -15l-7 -4q-5 0 -27.5 28.5t-27.5 36.5q-14 -2 -17 -2t-17 2zM855 494q-5 -8 -27 -36t-27 -28q-1 0 -69 39q-3 3 -3 4q0 13 29 77q-11 14 -17 29
q-83 9 -83 18v78q0 8 83 17q5 11 17 29q-29 64 -29 77q0 2 1 3.5t3 2.5t4.5 2t6.5 3t7 4q5 3 16 9.5t17 9.5q15 9 17 9q5 0 27 -28t27 -36q14 2 17 2t17 -2q33 45 51 63l4 1q2 0 69 -39q2 -2 2 -4q0 -15 -28 -77q9 -13 16 -29q83 -9 83 -17v-78q0 -9 -83 -18q-7 -17 -16 -29
q28 -62 28 -77q0 -2 -2 -4q-67 -39 -69 -39q-5 0 -27.5 28t-27.5 36q-7 -1 -17 -1t-17 1zM801 64q0 -29 21 -50t50 -21t50.5 21t21.5 50q0 28 -22 50t-50 22t-49.5 -21.5t-21.5 -50.5zM801 636q0 -29 21 -50.5t50 -21.5t50.5 21.5t21.5 50.5q0 28 -21.5 49.5t-50.5 21.5
q-28 0 -49.5 -21.5t-21.5 -49.5z" />
    <glyph glyph-name="uni2702" unicode="&#x2702;" 
d="M184 -79q-75 0 -125 45t-43 114q8 91 104 152q74 47 155 47q47 0 84 -18q5 8 13 13l68 40l-68 41q-9 5 -13 12q-35 -17 -84 -17q-67 0 -130.5 33.5t-97.5 82.5q-50 73 -23 145q16 44 59.5 70t100.5 26q67 0 131 -33.5t97 -81.5q46 -66 26 -137l2 -1l4 -2l62 -37l385 216
q8 5 17 5t16 -4l72 -36q16 -9 18.5 -28.5t-13.5 -31.5l-283 -222l283 -222q16 -12 13.5 -31.5t-18.5 -28.5l-72 -35q-7 -4 -16 -4q-10 0 -17 4l-385 216l-62 -37q-1 0 -3 -1t-3 -1q18 -65 -13.5 -118t-86.5 -88q-74 -47 -154 -47zM109 91q-14 -37 10 -58.5t65 -21.5
q51 0 101 29.5t65 68.5q14 37 -10 58.5t-65 21.5q-51 0 -101 -29.5t-65 -68.5zM109 538q15 -39 65 -69t101 -30q41 0 65 22t10 59q-15 39 -65 68.5t-101 29.5q-41 0 -65 -21.5t-10 -58.5zM390 243l21 -21l15 -15l89 54l54 -18l410 321l-71 36l-429 -241v-63zM444 359
q0 22 26 36l-44 26l-15 -14l-21 -21l54 -33v6zM515 314q0 14 11 25t25 11t25 -11t11 -25t-11 -24.5t-25 -10.5t-25 10.5t-11 24.5zM583 211l325 -182l71 35l-290 228l-99 -77q-3 -3 -7 -4z" />
    <glyph glyph-name="uni2709" unicode="&#x2709;" horiz-adv-x="930" 
d="M17 626q2 14 26 14h846q38 0 20 -32q-8 -15 -24 -22q-8 -4 -96.5 -51t-181 -97t-96.5 -52q-16 -10 -46 -10q-29 0 -46 10q-4 2 -96.5 52t-181 97t-96.5 51q-32 18 -28 40zM895 486q20 11 20 -10v-368q0 -16 -17 -32t-33 -16h-800q-16 0 -33 16t-17 32v368q0 21 20 10
l384 -200q17 -10 46 -10t46 10z" />
    <glyph glyph-name="uni270D" unicode="&#x270d;" horiz-adv-x="1026" 
d="M176 -7q-66 0 -113.5 47.5t-47.5 113.5v464q0 66 47.5 113.5t113.5 47.5h464q34 0 65 -14q8 -4 10 -13t-5 -16l-27 -28q-5 -5 -12 -5t-16.5 2t-14.5 2h-464q-37 0 -63.5 -26t-26.5 -63v-464q0 -37 26.5 -63.5t63.5 -26.5h464q37 0 63 26.5t26 63.5v70q0 7 5 12l36 36
q9 9 20 4.5t11 -16.5v-106q0 -66 -47.5 -113.5t-113.5 -47.5h-464zM372 296l375 375l161 -160l-375 -375h-161v160zM479 243v-54h32l64 65l-85 85l-64 -65v-31h53zM560 377l196 196q6 6 4 13.5t-8.5 8.5t-13.5 -4l-196 -196q-9 -9 0 -18t18 0zM783 707l51 51q16 16 38 16
t38 -16l85 -84q16 -16 16 -38t-16 -38l-51 -52z" />
    <glyph glyph-name="uni270E" unicode="&#x270e;" horiz-adv-x="875" 
d="M15 154l464 464l232 -232l-464 -465h-232v233zM158 64v-71h60l50 51l-131 131l-51 -51v-60h72zM194 195q5 0 9 4l303 302q3 3 3 10q0 12 -12 12q-5 0 -9 -4l-303 -302q-4 -4 -4 -10q0 -12 13 -12zM515 654l93 92q20 21 50 21t51 -21l131 -131q20 -21 20 -51t-20 -50
l-93 -93z" />
    <glyph glyph-name="uni2712" unicode="&#x2712;" horiz-adv-x="728" 
d="M75 -138q-6 -20 -26 -8q-18 7 -16 34q5 103 50 226q-100 154 -52 316q24 -79 76 -158q22 -34 32 -30q7 4 0 83q-8 88 -11 166q-3 88 25 157q24 47 80 94q62 52 104 70q-24 -47 -33 -94q-19 -105 17 -110q12 0 84 120q72 121 106 122q46 4 114 -29t82 -65q12 -24 0 -79
t-40 -83q-44 -44 -146 -62t-114 -24q-16 -10 12 -34q55 -48 176 -20q-55 -79 -136 -114q-77 -33 -132 -38q-53 -5 -54 -10q-4 -23 49 -54q53 -30 101 -14q-30 -56 -63 -84q-34 -29 -52.5 -35t-77.5 -11q-69 -6 -85 -8z" />
    <glyph glyph-name="uni2713" unicode="&#x2713;" horiz-adv-x="697" 
d="M264 0q-34 0 -56 28l-180 236q-25 39 -2 78.5t67 33.5q29 -5 47 -28l118 -154l296 474q15 23 41 30t55 -8q23 -15 30 -41t-8 -55l-350 -560q-20 -32 -56 -32z" />
    <glyph glyph-name="uni2715" unicode="&#x2715;" horiz-adv-x="500" 
d="M467 194q18 -18 18 -43t-17.5 -42t-43.5 -17t-43 16l-132 152l-132 -152q-17 -16 -43 -16t-43 16q-16 17 -16 43t16 43l138 156l-138 158q-16 17 -16 43t16 43q17 16 43 16t43 -16l132 -152l132 152q17 16 43 16t43.5 -17t17.5 -42t-18 -43l-138 -158z" />
    <glyph glyph-name="uni2716" unicode="&#x2716;" horiz-adv-x="870" 
d="M732 647q123 -123 123 -297t-123 -297t-297 -123t-297 123t-123 297t123 297t297 123t297 -123zM521 350l154 154l-86 86l-154 -152l-152 152l-88 -86l154 -154l-154 -152l88 -86l152 152l154 -152l86 86z" />
    <glyph glyph-name="uni274E" unicode="&#x274e;" horiz-adv-x="830" 
d="M715 750q42 0 71 -29t29 -71v-600q0 -41 -29.5 -70.5t-70.5 -29.5h-600q-40 0 -70 30t-30 70v600q0 41 29.5 70.5t70.5 29.5h600zM569 112l86 86l-154 152l154 154l-86 86l-154 -152l-152 152l-88 -86l154 -154l-154 -152l88 -86l152 152z" />
    <glyph glyph-name="uni2753" unicode="&#x2753;" horiz-adv-x="610" 
d="M15 526q5 129 77 201.5t203 72.5q130 0 214 -60q86 -62 86 -184q0 -64 -42 -124q-13 -21 -88 -80l-46 -30q-41 -34 -48 -60q-7 -18 -8 -44q0 -14 -16 -14h-128q-16 0 -16 12q5 99 28 124q26 36 104 90l24 14q22 16 34 34q28 43 28 70q0 40 -26 78q-29 36 -92 36
q-68 0 -94 -44q-28 -41 -28 -92h-166zM293 104q44 0 73 -30t27 -74q-2 -45 -31.5 -72.5t-74.5 -25.5q-45 0 -73.5 29.5t-26.5 74.5t31.5 72.5t74.5 25.5z" />
    <glyph glyph-name="uni275E" unicode="&#x275e;" horiz-adv-x="792" 
d="M15 530q0 61 43 105.5t103 44.5q146 0 184 -146q38 -140 -40 -302q-79 -168 -224 -204q-34 -8 -66 -8v70q111 0 182 108q54 86 26 146q-17 36 -62 36q-60 0 -103 44.5t-43 105.5zM581 680q146 0 184 -146q38 -140 -40 -302q-79 -168 -224 -204q-34 -8 -66 -8v70
q111 0 182 108q54 86 26 146q-17 36 -62 36q-60 0 -103 44.5t-43 105.5t43 105.5t103 44.5z" />
    <glyph glyph-name="uni2795" unicode="&#x2795;" horiz-adv-x="870" 
d="M732 647q123 -123 123 -297t-123 -297t-297 -123t-297 123t-123 297t123 297t297 123t297 -123zM487 300h200v102h-200v202h-102v-202h-202v-102h202v-202h102v202z" />
    <glyph glyph-name="uni2796" unicode="&#x2796;" horiz-adv-x="870" 
d="M732 647q123 -123 123 -297t-123 -297t-297 -123t-297 123t-123 297t123 297t297 123t297 -123zM687 402h-504v-102h504v102z" />
    <glyph glyph-name="uni27A6" unicode="&#x27a6;" horiz-adv-x="930" 
d="M555 252q-211 0 -332 -45q-122 -45 -208 -197q9 48 20 76.5t43 93.5q40 83 96 148q56 64 156 117q101 53 225 53v192l360 -322l-360 -334v218z" />
    <glyph glyph-name="uni27F2" unicode="&#x27f2;" horiz-adv-x="970" 
d="M547 736q171 0 289 -120q119 -121 119 -290t-119 -290q-118 -120 -289 -120q-143 0 -252 88l70 74q84 -60 182 -60q126 0 216 90t90 218t-90 218t-216 90q-124 0 -214 -87q-91 -87 -92 -211h142l-184 -204l-184 204h124q1 166 122 283q120 117 286 117z" />
    <glyph glyph-name="uni27F3" unicode="&#x27f3;" horiz-adv-x="970" 
d="M423 760q168 0 287 -116q118 -116 123 -282h122l-184 -206l-184 206h144q-5 125 -94 210q-91 86 -214 86q-126 0 -216 -90t-90 -218q0 -126 90 -216t216 -90q104 0 182 60l70 -76q-109 -88 -252 -88q-168 0 -288 120t-120 290t120 290t288 120z" />
    <glyph glyph-name="uni2B0D" unicode="&#x2b0d;" 
d="M15 350q0 14 11 25l142 143q11 11 26 11q14 0 24.5 -11t10.5 -25v-72h572v72q0 14 10.5 25t24.5 11q15 0 26 -11l142 -143q11 -11 11 -25t-11 -25l-142 -143q-11 -11 -26 -11q-14 0 -24.5 11t-10.5 25v72h-572v-72q0 -14 -10.5 -25t-24.5 -11q-15 0 -26 11l-142 143
q-11 11 -11 25z" />
    <glyph glyph-name="uni2ECF" unicode="&#x2ecf;" horiz-adv-x="889" 
d="M52 -7q-14 0 -25 11t-11 25v142q0 14 11 25t25 11h785q14 0 25 -11t11 -25v-142q0 -14 -11 -25t-25 -11h-785zM16 286q-3 8 7 18l396 396q10 10 25 10t25 -10l397 -396q10 -10 7 -17.5t-18 -7.5h-821q-15 0 -18 7z" />
    <glyph glyph-name="uniE003" unicode="&#xe003;" 
d="M365 400q21 0 35.5 -15t14.5 -35t-15.5 -35t-34.5 -15h-300q-19 0 -34.5 15t-15.5 35t14.5 35t35.5 15h300zM365 200q21 0 35.5 -15t14.5 -35t-15.5 -35t-34.5 -15h-300q-19 0 -34.5 15t-15.5 35t14.5 35t35.5 15h300zM1015 350q0 -50 -30 -50h-170v-170q0 -30 -50 -30
t-50 30v170h-164q-30 0 -30 50t30 50h164v170q0 30 50 30t50 -30v-170h170q30 0 30 -50zM365 600q21 0 35.5 -15t14.5 -35t-15.5 -35t-34.5 -15h-300q-19 0 -34.5 15t-15.5 35t14.5 35t35.5 15h300z" />
    <glyph glyph-name="uniE00C" unicode="&#xe00c;" horiz-adv-x="1000" 
d="M0 493h305l345 281v-965l-345 279h-229zM713 209q0 4 2 6l76 76l-76 77q-2 2 -2 5q0 4 2 6l53 53q2 2 5 2q4 0 6 -2l76 -76l77 76l6 2q3 0 5 -2l55 -53q2 -2 2 -6q0 -3 -2 -5l-76 -77l76 -76q2 -6 2 -7q0 -2 -2 -4l-55 -55q-2 -2 -5 -2q-1 0 -3 1t-3 1l-77 78l-76 -78
q-2 -2 -5 -2l-6 2l-53 55q-2 2 -2 5z" />
    <glyph glyph-name="uniE01F" unicode="&#xe01f;" horiz-adv-x="1000" 
d="M156 -150q-39 0 -66.5 27.5t-27.5 66.5v468q-62 49 -62 126q0 75 62 124v94q0 39 27.5 66.5t66.5 27.5t66.5 -27.5t27.5 -66.5v-94q62 -49 62 -124q0 -77 -62 -126v-468q0 -39 -27.5 -66.5t-66.5 -27.5zM244 569q-8 27 -32 44.5t-56 17.5q-44 0 -76 -39q-18 -22 -18 -54
t18 -56t45 -32q15 -6 31 -6q32 0 56 17.5t32 44.5q6 18 6 32q0 13 -4 25q0 1 -1 3t-1 3zM125 -56q0 -14 9 -23t22 -9q14 0 23 9t9 23v441q-13 -4 -32 -4q-18 0 -31 4v-441zM156 788q-13 0 -22 -9t-9 -23v-66q13 4 31 4q19 0 32 -4v66q0 14 -9 23t-23 9zM500 -150
q-39 0 -66.5 27.5t-27.5 66.5v94q-62 49 -62 124q0 77 62 126v468q0 39 27.5 66.5t66.5 27.5t66.5 -27.5t27.5 -66.5v-468q62 -49 62 -126q0 -75 -62 -124v-94q0 -39 -27.5 -66.5t-66.5 -27.5zM406 162q0 -32 18 -55.5t45 -31.5q15 -6 31 -6q32 0 56 17.5t32 44.5l2 6
q4 12 4 25q0 49 -37 75q-24 19 -57 19q-44 0 -76 -39q-18 -22 -18 -55zM469 -56q0 -14 9 -23t22 -9t22 9t9 23v66q-13 -4 -31 -4t-31 4v-66zM500 788q-13 0 -22 -9t-9 -23v-441q13 4 31 4t31 -4v441q0 14 -9 23t-22 9zM844 -150q-39 0 -66.5 27.5t-27.5 66.5v468
q-62 49 -62 126q0 75 62 124v94q0 39 27.5 66.5t66.5 27.5t66.5 -27.5t27.5 -66.5v-94q62 -49 62 -124q0 -77 -62 -126v-468q0 -39 -27.5 -66.5t-66.5 -27.5zM750 538q0 -32 17.5 -56t44.5 -32q15 -6 32 -6q32 0 56 17.5t32 44.5l2 6q4 12 4 26q0 47 -38 74q-24 19 -56 19
t-56 -17.5t-32 -44.5q-6 -18 -6 -31zM812 -56q0 -14 9 -23t23 -9q13 0 22 9t9 23v441q-13 -4 -31 -4q-19 0 -32 4v-441zM812 690q13 4 32 4q18 0 31 -4v66q0 14 -9 23t-22 9q-14 0 -23 -9t-9 -23v-66z" />
    <glyph glyph-name="uniE025" unicode="&#xe025;" horiz-adv-x="1000" 
d="M0 24l174 174v-118h652v118l174 -174l-174 -174v115h-652v-115zM211 672l4 178h570l4 -178h-60q0 92 -20 107q-18 14 -137 14v-488q0 -45 11 -53q10 -7 75 -7v-49h-316v49q67 0 75 6q11 8 11 54v488q-119 0 -137 -14q-20 -15 -20 -107h-60z" />
    <glyph glyph-name="uniE027" unicode="&#xe027;" horiz-adv-x="1000" 
d="M219 -88q-25 0 -44 19t-19 44v383q-14 -8 -31 -8q-44 0 -59 43l-62 187q-14 41 20 69l156 125q19 14 39 14h562q20 0 39 -14l157 -125q33 -27 19 -69l-62 -187q-15 -43 -59 -43q-17 0 -31 8v-383q0 -25 -19 -44t-44 -19h-562zM500 631q-53 0 -94.5 26.5t-55.5 67.5h-131
l-156 -125l62 -188l94 63v-500h562v500l94 -63l63 188l-157 125h-131q-14 -41 -55.5 -67.5t-94.5 -26.5zM383 725q14 -28 45.5 -45.5t71.5 -17.5t71.5 17.5t45.5 45.5h-234z" />
    <glyph glyph-name="uniE048" unicode="&#xe048;" horiz-adv-x="1000" 
d="M0 350l254 254v-170h492v170l254 -254l-254 -254v170h-492v-170z" />
    <glyph glyph-name="uniE052" unicode="&#xe052;" horiz-adv-x="1000" 
d="M0 166h145q27 0 33 3q3 2 23 23q8 9 139 195q110 159 160 209q63 65 137 65h142v154l221 -221l-221 -219v163h-142q-16 0 -23 -4q-5 -3 -28 -26q-44 -44 -145 -191q-10 -14 -66 -96t-82 -111q-59 -67 -148 -67h-145v123zM0 661h145q38 0 68.5 -11t57.5 -36t41.5 -43.5
t41.5 -56.5q-1 -2 -7 -10.5t-7 -10.5q-27 -39 -51 -71q-3 -6 -12 -15q-59 84 -76 103q-20 24 -23 25q-6 3 -33 3h-145v123zM430 192l34 51l26 39q2 2 7.5 9t6.5 8q57 -77 82 -103q23 -23 28 -26q7 -4 23 -4h142v159l221 -219l-221 -221v158h-142q-33 0 -63 12t-57.5 37.5
t-44.5 45.5t-42 54z" />
    <glyph glyph-name="uniE054" unicode="&#xe054;" horiz-adv-x="1000" 
d="M0 375q0 206 114 293q39 30 71 45.5t84 27.5q49 12 163 21l37 -176q-95 -19 -147 -51q-66 -40 -58 -130h131v-467h-395v437zM529 -62v437q0 135 54 226q19 33 56.5 64t76.5 48q28 13 78.5 26t85.5 16q10 1 37.5 3t43.5 4l39 -176q-55 -11 -84.5 -20.5t-63.5 -30.5
q-63 -39 -59 -130h131v-467h-395z" />
    <glyph glyph-name="uniE0AD" unicode="&#xe0ad;" horiz-adv-x="979" 
d="M1 711q-3 32 14 51t46 7q24 -10 35 -38l53 -184q-15 -31 -14 -64q7 -36 36 -203q17 -112 97 -112q47 0 74 37q33 -38 82 -37t75 41q26 -35 69 -40t75 27q26 36 31 68q6 32 6 73v38q25 -10 61 24q50 46 109 78q61 33 98 8q32 -23 31 -59t-35 -55q-61 -26 -104 -82
q-46 -60 -67 -112q-20 -49 -58 -117q-35 -62 -78 -93q-20 -17 -66 -17h-350q-84 6 -105 117zM182 477q-6 44 21 65q26 20 56 8q31 -12 37 -48l21 -209q3 -36 -15 -61.5t-48 -16.5q-26 7 -37 45zM337 547q2 41 32 56q29 15 62 -1q31 -15 36 -49l8 -248q0 -58 -28 -76t-57 5
t-30 61zM512 551q4 43 37 55q31 12 62 -7q30 -18 30 -52l-6 -254q-6 -47 -34 -66t-54 1q-28 21 -29 67z" />
    <glyph glyph-name="uniE0DE" unicode="&#xe0de;" horiz-adv-x="881" 
d="M1 309q-2 13 7.5 22t21.5 11l90 16q22 3 34 -13.5t-2 -34.5q-10 -12 -24 -13l-88 -13q-15 -2 -26 5t-13 20zM3 560q-10 21 7.5 34t37.5 2l82 -35q32 -15 19 -41q-13 -25 -45 -16l-82 39q-13 4 -19 17zM169 741q-12 18 -2 36.5t32 11.5q15 -6 21 -15l49 -76q12 -17 2 -35
t-31 -13q-13 3 -20 14zM438 647h4q80 0 136.5 -32t82.5 -89q44 -104 -15 -227q-6 -12 -47 -92q-15 -29 -25 -73q-11 -49 -16 -61q-5 -13 -16 -14h-203q-12 1 -18 14q-32 117 -39 134q-41 80 -47 92q-59 131 -15 227q54 121 218 121zM319 -97q0 17 18 17h209q7 0 11.5 -5
t4.5 -12v-35q0 -7 -4.5 -12.5t-11.5 -5.5h-209q-18 0 -18 18v35zM337 -46q-18 0 -18 17v35q0 18 18 18h209q7 0 11.5 -5.5t4.5 -12.5v-35q0 -7 -4.5 -12t-11.5 -5h-209zM442 692q-13 0 -21 9.5t-8 23.5v90q0 35 29 35q13 0 21.5 -10.5t8.5 -24.5v-90q0 -13 -9 -23t-21 -10z
M612 698l49 76q22 26 45 14q22 -18 6 -47l-49 -77q-20 -24 -44 -11q-12 7 -13 19q-2 14 6 26zM729 310q-13 18 -1 34.5t33 13.5l90 -16q12 -2 21.5 -11t7.5 -22q-5 -30 -39 -25l-90 13q-14 2 -22 13zM732 520q-5 13 1.5 24.5t17.5 16.5l84 35q17 12 35 -1t8 -35
q-6 -12 -20 -17l-82 -39q-33 -9 -44 16z" />
    <glyph glyph-name="uniE10D" unicode="&#xe10d;" horiz-adv-x="1000" 
d="M0 164h451v-80h98v80h451v-253h-1000v253zM0 649h266v140h468v-140h266v-406h-451v84h-98v-84h-451v406zM338 649h324v68h-324v-68z" />
    <glyph glyph-name="uniE700" unicode="&#xe700;" 
d="M815 6v-106h-800v202q41 16 82 26q95 34 129 69q35 35 35 95q0 22 -23 48q-24 27 -31 74q-1 11 -23 25q-21 13 -25 61q0 32 14 38l4 4q-1 6 -3 19q-13 53 -8 95.5t39 85.5q46 58 160 58t160 -58t42 -112l-14 -88q18 -8 18 -42q-5 -55 -23 -60q-20 -5 -23 -26
q-10 -46 -33 -73q-23 -28 -23 -49q0 -60 36 -95t130 -69q180 -65 180 -122zM865 400h150v-100h-150v-150h-100v150h-150v100h150v150h100v-150z" />
    <glyph glyph-name="uniE704" unicode="&#xe704;" horiz-adv-x="950" 
d="M795 680q135 -131 140 -322q2 -192 -131 -327q-134 -137 -323 -141q-192 -2 -327 131q-138 134 -139 323q-4 190 130 327q134 138 324 139t326 -130zM467 70q29 0 48.5 19t19.5 47q2 30 -17 49t-49 19h-2q-28 0 -47 -18t-21 -46q0 -29 19 -48.5t47 -21.5h2zM633 398
q26 35 26 78q0 76 -52 115t-136 39t-128.5 -44.5t-47.5 -127.5v-4h110v4q0 26 16 54q17 24 54 24q40 0 52 -20q16 -19 16 -44q0 -15 -9.5 -30t-19 -23t-27 -20.5t-22.5 -16.5q-26 -20 -38 -34q-13 -20 -18 -78v-8h108v4q0 40 32 64l28 18q46 34 56 50z" />
    <glyph glyph-name="uniE705" unicode="&#xe705;" horiz-adv-x="950" 
d="M795 680q135 -131 140 -322q2 -192 -131 -327q-134 -137 -323 -141q-192 -2 -327 131q-138 134 -139 323q-4 190 130 327q134 138 324 139t326 -130zM497 524q36 0 60 21.5t24 54.5q0 58 -60 58q-43 0 -65 -24q-23 -25 -23 -50q-2 -29 15.5 -44.5t48.5 -15.5zM401 64
q29 0 84 26q53 25 106 78l-18 24q-48 -36 -72 -36q-15 0 -4 38l42 160q25 96 -22 96q-29 0 -89 -29q-61 -30 -115 -75l16 -26q52 34 74 34q12 0 0 -34l-36 -152q-26 -104 34 -104z" />
    <glyph glyph-name="uniE70C" unicode="&#xe70c;" horiz-adv-x="990" 
d="M951 631q-43 -92 -128 -157l18 -24q17 -28 6 -54l-48 -158q-12 -29 -36 -46l-464 -328q-42 -30 -64 4l-210 304q-12 20 -8.5 40.5t20.5 31.5l464 328q25 18 54 18h158q30 0 48 -26l28 -40q168 130 114 286q-10 28 18 40q32 8 38 -20q36 -106 -8 -199zM743 362
q40 31 34 80l-32 -16q-7 -4 -12 -4q-17 0 -28 18q-12 30 16 40l24 14q-48 35 -92 0q-27 -17 -33.5 -49t13.5 -63q17 -24 49 -31t61 11z" />
    <glyph glyph-name="uniE70D" unicode="&#xe70d;" horiz-adv-x="1090" 
d="M15 707q0 29 21.5 50.5t49.5 21.5h233q32 0 67 -15.5t55 -35.5l399 -399q20 -21 20 -50q0 -31 -20 -51l-274 -274q-22 -21 -51 -21t-50 21l-399 399q-19 18 -35 54.5t-16 67.5v232zM122 600q0 -29 21.5 -50t50.5 -21t50 21t21 50t-21 50t-50 21t-50.5 -21t-21.5 -50z
M408 779h125q32 0 67 -15.5t55 -35.5l399 -399q21 -23 21 -50q0 -30 -21 -51l-274 -274q-22 -21 -51 -21q-15 0 -27 5.5t-16.5 9.5t-18.5 18l262 262q21 21 21 51q0 27 -21 50l-399 399q-20 20 -55 35.5t-67 15.5z" />
    <glyph glyph-name="uniE712" unicode="&#xe712;" horiz-adv-x="930" 
d="M915 10q-86 152 -208 197q-121 45 -330 45v-218l-362 334l362 322v-192q88 0 166.5 -27t132.5 -70q110 -88 165 -199q57 -117 68 -164z" />
    <glyph glyph-name="uniE713" unicode="&#xe713;" 
d="M165 368l212 -196v-138l-362 334l362 322v-134zM627 498q103 0 182 -50q77 -49 115 -122q78 -155 87 -266l4 -50q-85 154 -168 198t-220 44v-218l-362 334l362 322v-192z" />
    <glyph glyph-name="uniE715" unicode="&#xe715;" 
d="M15 560q0 22 14 36t36 14h288q-65 -49 -98 -88l-10 -12h-130v-450h650v56l100 82v-188q0 -20 -15.5 -35t-34.5 -15h-750q-19 0 -34.5 15t-15.5 35v550zM683 408q-165 0 -242 -41q-75 -40 -160 -181q0 72 32 157q16 43 48 88.5t66 73.5q42 35 111 57t145 22v156l332 -250
l-332 -260v178z" />
    <glyph glyph-name="uniE722" unicode="&#xe722;" 
d="M915 750q42 0 71 -29t29 -71v-600q0 -41 -29.5 -70.5t-70.5 -29.5h-800q-40 0 -70 30t-30 70v600q0 41 29.5 70.5t70.5 29.5h800zM915 650h-800v-600h800v600zM465 156h-250v90h250v-90zM465 306h-250v90h250v-90zM465 456h-250v90h250v-90zM811 226l4 -70h-250
q0 70 6 70q84 22 84 66q0 16 -27 56t-27 88q0 110 90 110t90 -110q0 -48 -28 -88t-28 -56q0 -20 20.5 -35.5t43.5 -22.5z" />
    <glyph glyph-name="uniE723" unicode="&#xe723;" 
d="M461 780v-860q0 -20 -20 -20h-46q-20 0 -20 20v440h-176q-16 0 -28 6q-13 2 -26 12l-120 82q-10 6 -10 16t10 16l120 82q13 10 26 12q7 4 28 4h176v190q0 20 20 20h46q20 0 20 -20zM1005 592q10 -6 10 -16t-10 -16l-118 -82q-23 -12 -26 -12q-13 -6 -28 -6h-302l-40 230
h342q22 0 54 -16z" />
    <glyph glyph-name="uniE724" unicode="&#xe724;" horiz-adv-x="530" 
d="M442 677q73 -73 73 -177q0 -105 -62 -243q-63 -139 -126 -223l-62 -84q-35 41 -83 116.5t-80 137.5q-87 169 -87 296q0 104 73 177t177 73t177 -73zM265 362q55 0 95.5 40t40.5 96q0 55 -40 94.5t-96 39.5q-55 0 -94.5 -39t-39.5 -95t39.5 -96t94.5 -40z" />
    <glyph glyph-name="uniE729" unicode="&#xe729;" horiz-adv-x="790" 
d="M65 458q121 -70 330 -70t330 70l-54 -486q-1 -13 -35 -36q-32 -22 -100 -43t-141 -21q-64 0 -132.5 19t-107.5 45q-35 22 -36 36zM553 758q94 -18 158 -55t64 -71v-10q0 -59 -112 -99q-114 -41 -268 -41t-268 41q-112 40 -112 99v10q0 34 64 71t158 55l42 48q23 26 70 26
h92q52 0 70 -26zM499 646h84q-95 114 -104 126q-13 16 -32 16h-102q-22 0 -32 -16l-106 -126h84l64 66h82z" />
    <glyph glyph-name="uniE738" unicode="&#xe738;" horiz-adv-x="1122" 
d="M1070 850q15 0 27 -11.5t12 -27.5v-118q0 -16 -11.5 -27t-27.5 -11h-1018q-15 0 -26.5 11.5t-11.5 26.5v118q0 16 12 27.5t26 11.5h1018zM1030 576q17 0 28.5 -11.5t11.5 -27.5v-548q0 -16 -12 -27.5t-28 -11.5h-938q-16 0 -28 11.5t-12 27.5v548q0 16 12 27.5t28 11.5
h938zM796 400q0 24 -17.5 41t-41.5 17h-352q-24 0 -41 -17t-17 -41t17 -41t41 -17h352q24 0 41.5 17t17.5 41z" />
    <glyph glyph-name="uniE73A" unicode="&#xe73a;" horiz-adv-x="790" 
d="M552 507q223 -223 223 -537h-118q0 265 -188 453q-187 187 -454 187v120q314 0 537 -223zM386 339q153 -153 153 -369h-118q0 166 -119 285t-287 119v118q218 0 371 -153zM129 196q47 0 80.5 -34t33.5 -80t-34 -79t-80 -33t-80 33t-34 79t33.5 80t80.5 34z" />
    <glyph glyph-name="uniE73D" unicode="&#xe73d;" horiz-adv-x="959" 
d="M15 671q0 14 11 25t25 11h143q17 0 26.5 -13t12 -24t5.5 -34h670q14 0 25 -11t11 -25v-286q0 -14 -9.5 -23.5t-22.5 -11.5l-583 -69q7 -38 7 -39q0 -9 -13 -35h513q14 0 25 -11t11 -25t-11 -25t-25 -11h-35q29 0 50 -21t21 -50t-21 -50.5t-50 -21.5t-50.5 21.5
t-21.5 50.5t21.5 50t50.5 21h-500q29 0 50 -21t21 -50t-21 -50.5t-50 -21.5t-50.5 21.5t-21.5 50.5t21.5 50t50.5 21h-36q-14 0 -25 11t-11 25q0 8 6 22q3 6 14.5 28t13.5 26l-98 460h-114q-14 0 -25 10.5t-11 24.5z" />
    <glyph glyph-name="uniE756" unicode="&#xe756;" horiz-adv-x="943" 
d="M537 360q-28 0 -49 -21t-21 -49q0 -20 10 -36q-43 -52 -108.5 -86.5t-137.5 -29.5q-101 10 -157 57q-54 46 -59 109q-8 122 156 184q-17 89 -22 138q-8 56 104 105q111 49 284 49q175 0 286 -49q112 -49 104 -105q-24 -150 -45.5 -288.5t-32 -207t-14.5 -92.5
q-1 -18 -37 -44q-35 -26 -107 -50t-154 -24q-83 0 -153 24q-71 24 -106 50q-36 26 -37 44q0 5 -4 30q91 -7 170 38t132 114q28 0 48 20.5t20 49.5t-20.5 49.5t-49.5 20.5zM122 251q33 -27 91 -39l-32 204q-101 -44 -96 -106q5 -33 37 -59zM537 522q71 0 149 16.5t121 40.5
q38 21 38 35t-38 35q-44 24 -121 40.5t-149 16.5q-71 0 -147.5 -16.5t-120.5 -40.5q-38 -21 -38 -35t38 -35q43 -24 120 -40.5t148 -16.5z" />
    <glyph glyph-name="uniE757" unicode="&#xe757;" horiz-adv-x="570" 
d="M415 356q62 -35 101 -96t39 -140q0 -112 -79 -191t-191 -79t-191 79t-79 191q0 79 39 140t101 96v444q0 50 40 50h170q19 0 34.5 -15t15.5 -35v-444zM285 -50q70 0 120 50t50 120q0 58 -33 101t-83 59v370h-100v-368q-51 -15 -87.5 -59.5t-36.5 -102.5q0 -70 50 -120
t120 -50z" />
    <glyph glyph-name="uniE764" unicode="&#xe764;" horiz-adv-x="896" 
d="M78 570l370 -356l372 356q22 26 48 0q26 -22 0 -48l-396 -392q-22 -22 -48 0l-396 392q-26 26 0 48q24 24 50 0z" />
    <glyph glyph-name="uniE765" unicode="&#xe765;" horiz-adv-x="495" 
d="M467 -20q25 -26 0 -48q-25 -26 -48 0l-392 394q-24 24 0 50l392 394q23 26 48 0q25 -22 0 -48l-358 -372z" />
    <glyph glyph-name="uniE766" unicode="&#xe766;" horiz-adv-x="495" 
d="M28 -20l358 370l-358 372q-26 26 0 48q26 26 48 0l392 -394q24 -26 0 -50l-392 -394q-22 -26 -48 0q-26 22 0 48z" />
    <glyph glyph-name="uniE767" unicode="&#xe767;" horiz-adv-x="894" 
d="M819 130l-372 358l-370 -358q-26 -23 -50 0q-24 24 0 50l396 390q25 26 48 0l396 -390q24 -26 0 -50q-25 -22 -48 0z" />
    <glyph glyph-name="uniE776" unicode="&#xe776;" horiz-adv-x="950" 
d="M197 494q-51 56 -92 128q55 75 128 118q89 -37 152 -82q-6 -16 -6 -32q0 -7 4 -22q-62 -48 -116 -104q-15 4 -28 4q-23 0 -42 -10zM161 346q-61 -116 -80 -232q-66 106 -66 236q0 109 50 206q39 -64 84 -112q-8 -26 -8 -38q0 -34 20 -60zM427 710q-56 40 -114 70
q84 30 162 30q120 0 230 -62q-74 -13 -162 -50q-26 26 -66 26q-27 0 -50 -14zM333 376q4 17 4 30q0 22 -14 52q36 42 98 90q26 -20 56 -20q12 0 38 8q93 -106 134 -240q-14 -11 -26 -32q-160 24 -290 112zM753 76q0 6 -1 28t-1 28q37 14 54 60q59 4 108 18
q-47 -147 -166 -232q6 48 6 98zM297 -74q-90 36 -158 110q12 142 80 274q8 -2 20 -2q29 0 52 14q145 -99 310 -124q-189 -95 -304 -272zM935 350q0 -27 -4 -66q-65 -18 -130 -24q-24 56 -88 60q-48 146 -148 264q10 19 10 42v10q101 42 210 54q150 -136 150 -340zM649 146
q13 -10 32 -18q2 -24 2 -52q0 -77 -14 -144q-85 -42 -194 -42q-58 0 -112 12q109 159 286 244z" />
    <glyph glyph-name="uniE781" unicode="&#xe781;" 
d="M51 -7q-14 0 -25 11t-11 25v71q0 14 11 25t25 11h928q14 0 25 -11t11 -25v-71q0 -14 -11 -25t-25 -11h-928zM51 207q-14 0 -25 11t-11 25v71q0 14 11 25t25 11h928q14 0 25 -11t11 -25v-71q0 -14 -11 -25t-25 -11h-928zM51 421q-14 0 -25 11t-11 25v72q0 14 11 24.5
t25 10.5h928q14 0 25 -10.5t11 -24.5v-72q0 -14 -11 -25t-25 -11h-928zM15 671v72q0 14 11 25t25 11h928q14 0 25 -11t11 -25v-72q0 -14 -11 -24.5t-25 -10.5h-928q-14 0 -25 10.5t-11 24.5z" />
    <glyph glyph-name="uniE795" unicode="&#xe795;" horiz-adv-x="928" 
d="M576 283v-112h-55v-166q0 -23 -17 -40t-39.5 -17t-39 16.5t-16.5 40.5v166h-56v112h56v503q0 24 16.5 39.5t38.5 15.5q24 0 40.5 -16t16.5 -39v-503h55zM911 618v-112h-55v-501q0 -23 -16.5 -40t-40.5 -17q-23 0 -39 16.5t-16 40.5v501h-56v112h56v168q0 24 15.5 39.5
t39.5 15.5t40.5 -16t16.5 -39v-168h55zM241 506v-111h-55v-390q0 -23 -16 -40t-40 -17q-23 0 -39.5 16.5t-16.5 40.5v390h-56v111h56v280q0 24 16 39.5t40 15.5t40 -16t16 -39v-280h55z" />
    <glyph glyph-name="uniE79A" unicode="&#xe79a;" horiz-adv-x="928" 
d="M464 246q0 -124 -87 -211t-210 -87q-81 0 -149 40q68 39 108.5 107.5t40.5 150.5q0 61 43.5 105t105 44t105 -44t43.5 -105zM878.5 808.5q32.5 -32.5 32.5 -79t-33 -79.5l-318 -318q-20 55 -61.5 97t-96.5 62l318 318q32 32 79 32t79.5 -32.5z" />
    <glyph glyph-name="uniE79B" unicode="&#xe79b;" horiz-adv-x="928" 
d="M353 171q0 -92 -65.5 -157.5t-157.5 -65.5q-62 0 -112 30q52 29 82 80.5t30 112.5q0 46 33 79t78.5 33t78.5 -33t33 -79zM878.5 808.5q32.5 -32.5 32.5 -79t-33 -79.5l-422 -421q-16 58 -58 100t-99 57l421 423q32 32 79 32t79.5 -32.5z" />
    <glyph glyph-name="uniE7A3" unicode="&#xe7a3;" horiz-adv-x="991" 
d="M495 432q58 0 108.5 16.5t61.5 47.5q2 -6 20.5 -58t35.5 -100q-5 -38 -70 -65q-66 -27 -156 -27t-156 27q-65 27 -70 65q17 48 35.5 100t20.5 58q11 -31 62.5 -47.5t107.5 -16.5zM371 624l52 142q10 34 72 34t74 -34q11 -34 50 -142q-29 -44 -124 -44t-124 44zM935 196
q41 -16 41 -41.5t-37 -46.5l-352 -188q-37 -22 -91 -22t-91 22l-354 188q-38 20 -36 46t42 42l188 76l-22 -60q0 -47 80 -82q78 -34 192 -34t192 34q81 35 82 82l-22 60z" />
    <glyph glyph-name="uniE7AE" unicode="&#xe7ae;" horiz-adv-x="843" 
d="M294 -25q-35 0 -59.5 24.5t-24.5 59.5t24.5 59t59.5 24t59.5 -24t24.5 -59t-24.5 -59.5t-59.5 -24.5zM699 -25q-34 0 -58.5 24.5t-24.5 59.5t24.5 59t58.5 24q35 0 58.5 -24t24.5 -59q0 -35 -24 -59.5t-59 -24.5zM776 584q22 -2 35.5 -16t13.5 -34v-282q0 -21 -15 -36
t-36 -15h-478q-17 0 -31.5 12.5t-16.5 30.5l-89 317q-15 58 -41 65q-10 3 -41.5 4t-44.5 11t-13 40q0 19 9.5 29.5t19.5 11.5l10 2l2 1h6h10q124 0 159 -103zM735 498l-114 8v-90h114v82zM581 416v93l-125 9v-102h125zM456 388v-97h125v97h-125zM256 530l38 -114h122v104z
M334 291h82v97h-112zM621 291h114v97h-114v-97z" />
    <glyph glyph-name="uniE800" unicode="&#xe800;" horiz-adv-x="1029" 
d="M276 800q46 0 78 -42t32 -102t-32 -102.5t-78 -42.5t-77.5 42.5t-31.5 102.5t31.5 102t77.5 42zM924 185q15 16 36.5 16.5t37.5 -15.5t16 -38.5t-15 -38.5q-125 -131 -296 -181.5t-346 -10t-309 166.5l-17 17q-16 16 -16 38t15 38t37 16.5t38 -15.5l12 -12l3 -3
q114 -107 262.5 -140.5t292.5 9.5t249 153zM753 800q46 0 77.5 -42t31.5 -102t-31.5 -102.5t-77.5 -42.5t-78 42.5t-32 102.5t32 102t78 42z" />
    <glyph glyph-name="uniE801" unicode="&#xe801;" horiz-adv-x="1029" 
d="M276 800q46 0 78 -42t32 -102t-32 -102.5t-78 -42.5t-77.5 42.5t-31.5 102.5t31.5 102t77.5 42zM924 185q15 16 36.5 16.5t37.5 -15.5t16 -38.5t-15 -38.5q-125 -131 -296 -181.5t-346 -10t-309 166.5l-17 17q-16 16 -16 38t15 38t37 16.5t38 -15.5l12 -12l3 -3
q114 -107 262.5 -140.5t292.5 9.5t249 153zM619 594q-23 0 -38.5 16t-15.5 38t15.5 38t38.5 16h267q22 0 38 -16t16 -38t-16 -38t-38 -16h-267z" />
    <glyph glyph-name="uniE802" unicode="&#xe802;" horiz-adv-x="1101" 
d="M123 279q-47 0 -77.5 23t-30.5 65q0 197 69 197q5 0 24 -11q65 -36 121 -36q39 0 75 13q-3 -21 -3 -37q0 -77 45 -143q-92 -3 -148 -71h-75zM86 707q0 59 42 101t101 42t101 -42t42 -101t-42 -101t-101 -42t-101 42t-42 101zM307 -150q-67 0 -108 39.5t-41 105.5
q0 198 83 278q43 41 110 41q6 0 24 -12q30 -20 49.5 -31t55 -22.5t71.5 -11.5q35 0 73 12t62 27q8 5 21 13.5t19 12.5q18 12 24 12q149 0 184 -201q10 -57 10 -118q0 -66 -41 -105.5t-108 -39.5h-488zM399 644q63 63 152 63q88 0 151 -63t63 -151q0 -89 -63 -152
q-62 -62 -151 -62q-90 0 -152 62q-63 63 -63 152q0 88 63 151zM729 707q0 59 42.5 101t100.5 42t100.5 -42t42.5 -101t-42.5 -101t-100.5 -42t-100.5 42t-42.5 101zM756 350q45 66 45 143q0 16 -3 37q36 -13 74 -13q56 0 121 36q19 11 24 11q69 0 69 -197q0 -42 -30.5 -65
t-77.5 -23h-75q-56 68 -147 71z" />
    <glyph glyph-name="uniE803" unicode="&#xe803;" horiz-adv-x="816" 
d="M164 -79q-67 0 -108 39.5t-41 105.5q0 199 83 279q43 41 110 41q6 0 24 -12q31 -20 50 -31t55 -23t71 -12q73 0 135 39q8 5 21 14l20 13q18 12 24 12q148 0 183 -201q10 -57 10 -119q0 -66 -41 -105.5t-108 -39.5h-488zM194 564q0 90 62 152q63 63 152 63q88 0 151 -63
t63 -152q0 -88 -63 -151t-151 -63q-89 0 -152 63q-62 62 -62 151z" />
    <glyph glyph-name="uniE804" unicode="&#xe804;" horiz-adv-x="875" 
d="M15 707q0 29 21.5 50.5t49.5 21.5h233q32 0 67 -15.5t55 -35.5l399 -399q20 -21 20 -50q0 -31 -20 -51l-274 -274q-22 -21 -51 -21t-50 21l-399 399q-19 18 -35 54.5t-16 67.5v232zM122 600q0 -29 21.5 -50t50.5 -21t50 21t21 50t-21 50t-50 21t-50.5 -21t-21.5 -50z" />
    <glyph glyph-name="uniE805" unicode="&#xe805;" horiz-adv-x="887" 
d="M15 413q0 7 4.5 13t10.5 7l104 16q6 21 22 51q-25 35 -60 77q-6 6 -6 14q0 4 5 12q13 18 54 59t54 41q9 0 15 -5l77 -60q16 9 50 21q8 71 17 104q5 16 20 16h124q18 0 20 -17l15 -103q33 -11 50 -20l80 59q5 5 13 5q9 0 14 -5q72 -66 92 -95q4 -4 4 -12t-4 -13
q-5 -7 -29.5 -38.5t-29.5 -38.5q14 -26 23 -54l102 -16q16 -2 16 -20v-124q0 -7 -4.5 -13t-10.5 -7l-104 -16q-11 -30 -21 -51q20 -30 59 -77q6 -6 6 -14q0 -5 -5 -12q-12 -17 -53 -58.5t-55 -41.5q-6 0 -14 5l-77 60q-14 -8 -51 -21q-9 -78 -16 -104q-5 -16 -20 -16h-124
q-18 0 -20 17l-16 103q-33 11 -50 20l-79 -59q-7 -5 -14 -5q-8 0 -14 6q-65 58 -92 94q-4 5 -4 12q0 6 5 13t29 38.5t29 38.5q-16 31 -23 55l-102 15q-16 2 -16 20v124zM301 350q0 -58 42.5 -100.5t100.5 -42.5t100 42t42 101t-42 101t-100 42t-100.5 -42.5t-42.5 -100.5z
" />
    <glyph glyph-name="uniE806" unicode="&#xe806;" horiz-adv-x="816" 
d="M33 564q-7 0 -12.5 5t-5.5 13v36q0 8 5.5 13t12.5 5h172l39 93q8 19 29.5 34.5t45.5 15.5h178q24 0 45 -15.5t29 -34.5l39 -93h173q7 0 12.5 -5t5.5 -13v-36q0 -8 -5.5 -13t-12.5 -5h-54v-529q0 -44 -25.5 -79t-63.5 -35h-464q-38 0 -64 34t-26 78v531h-53zM158 35
q0 -23 12 -37q5 -5 6 -5h464q7 0 12.5 15t5.5 27v529h-500v-529zM247 100q-7 0 -12.5 5t-5.5 13v321q0 7 5.5 12.5t12.5 5.5h36q7 0 12.5 -5.5t5.5 -12.5v-321q0 -8 -5.5 -13t-12.5 -5h-36zM283 636h250l-27 65q-5 5 -9 6h-177q-5 -1 -10 -6zM390 100q-8 0 -13 5t-5 13v321
q0 7 5 12.5t13 5.5h36q8 0 13 -5.5t5 -12.5v-321q0 -8 -5 -13t-13 -5h-36zM515 118v321q0 7 5.5 12.5t12.5 5.5h36q17 0 17 -18v-321q0 -18 -17 -18h-36q-7 0 -12.5 5t-5.5 13z" />
    <glyph glyph-name="uniE807" unicode="&#xe807;" horiz-adv-x="1031" 
d="M453 813q20 37 63 37q42 0 62 -37l429 -786q20 -37 -2 -71.5t-61 -34.5h-857q-39 0 -61.5 34t-1.5 72zM454 564q-6 0 -12.5 -5.5t-6.5 -12.5l10 -255q0 -12 19 -12h103q17 0 19 12l10 257q0 6 -6.5 11t-12.5 5h-123zM444 83q0 -8 5.5 -13.5t12.5 -5.5h107q7 0 12.5 5.5
t5.5 13.5v106q0 7 -5.5 12.5t-12.5 5.5h-107q-8 0 -13 -5.5t-5 -12.5v-106z" />
    <glyph glyph-name="uniE808" unicode="&#xe808;" horiz-adv-x="892" 
d="M280 -2.5q0 -32.5 -22.5 -55t-56.5 -22.5q-31 0 -54 22.5t-23 55t22.5 55t54.5 22.5q34 0 56.5 -22.5t22.5 -55zM809 -2.5q0 -32.5 -22.5 -55t-55 -22.5t-56 22.5t-23.5 55t23.5 55t56 22.5t55 -22.5t22.5 -55zM254 665h565q26 0 40.5 -13.5t14.5 -36.5v-235
q0 -20 -13 -34t-33 -16l-506 -55q-20 -3 -28.5 -18t0 -28.5t31.5 -13.5h479q26 0 36.5 -20t0 -40t-36.5 -20h-489q-53 0 -84.5 32.5t-26.5 77t46 75.5l44 32l-155 338h-77q-27 0 -38.5 22.5t0 45t38.5 22.5h89q31 0 45.5 -12.5t25.5 -39.5zM599 595h-130l26 -85h124z
M325 510h126l-27 85h-138zM395 352l100 10l-33 103h-118zM539 368l112 12l-25 85h-118zM805 398v67h-133l20 -80zM805 510v85h-161l18 -85h143z" />
    <glyph glyph-name="uniE809" unicode="&#xe809;" horiz-adv-x="673" 
d="M69 -7q-23 0 -38.5 15.5t-15.5 37.5v322q0 22 15.5 37.5t38.5 15.5h17v108q0 102 74 176t176 74q103 0 177 -74q73 -73 73 -176v-108h18q23 0 38.5 -15.5t15.5 -37.5v-322q0 -22 -15.5 -37.5t-38.5 -15.5h-535zM336 671q-58 0 -100 -41.5t-42 -100.5v-108h285v108
q0 58 -42 100t-101 42zM265 279q0 -44 39 -64l-38 -128q-3 -9 2.5 -16t14.5 -7h107q9 0 14.5 7t2.5 16l-38 128q39 20 39 64q0 29 -21.5 50t-50.5 21t-50 -21t-21 -50z" />
    <glyph glyph-name="uniE80A" unicode="&#xe80a;" horiz-adv-x="959" 
d="M69 -7q-23 0 -38.5 15.5t-15.5 37.5v322q0 22 15.5 37.5t38.5 15.5h375v108q0 103 73 176q74 74 177 74q102 0 176 -74t74 -176v-143q0 -14 -11 -25t-25 -11h-36q-14 0 -25 11t-11 25v143q0 59 -42 100.5t-100 41.5q-59 0 -101 -42t-42 -100v-108h53q23 0 38.5 -15.5
t15.5 -37.5v-322q0 -22 -15.5 -37.5t-38.5 -15.5h-535zM265 82q0 -8 5.5 -13t12.5 -5h107q8 0 13 5t5 13q0 4 -9 32q-4 14 -19 64l-11 37q39 19 39 64q0 29 -21.5 50t-50.5 21t-50 -21t-21 -50q0 -44 39 -64l-1 -4q-1 -4 -4 -13.5t-6 -19.5q-3 -9 -20 -64q-8 -25 -8 -32z
" />
    <glyph glyph-name="uniE80B" unicode="&#xe80b;" horiz-adv-x="1101" 
d="M104 -79q-37 0 -63 26.5t-26 63.5v678q0 37 26 63.5t63 26.5h893q37 0 63 -26.5t26 -63.5v-678q0 -37 -26 -63.5t-63 -26.5h-893zM86 11q0 -7 5 -12.5t13 -5.5h893q7 0 12.5 5.5t5.5 12.5v678q0 7 -5.5 12.5t-12.5 5.5h-893q-8 0 -13 -5.5t-5 -12.5v-678zM158 171
l178 179l90 -89l285 285l233 -232v-250h-786v107zM158 529q0 44 31.5 75.5t75.5 31.5t75.5 -31.5t31.5 -75.5t-31.5 -76t-75.5 -32t-75.5 32t-31.5 76z" />
    <glyph glyph-name="uniE80C" unicode="&#xe80c;" horiz-adv-x="890" 
d="M873 242q9 -120 -39 -140q-28 -12 -61 3q-36 16 -65 40q-37 28 -106.5 42t-141.5 7q-26 -4 -41.5 -18t-6.5 -38q26 -65 46 -108q4 -10 24 -22q19 -12 24 -20q13 -34 -22 -46q-45 -20 -102 -40q-30 -10 -54 42q-23 56 -58 132q-6 13 -34 17q-27 4 -46 31q-6 -2 -20 -7
t-19 -6.5t-16 -3.5t-18 -0.5t-17 5t-22 10.5q-40 24 -54 60q-16 30 -5 79q11 47 43 61q126 52 213 108q84 54 124 103q34 42 59 92q22 44 25 78q7 76 51 95q48 19 130 -70t142 -228q58 -137 67 -258zM778 200q9 5 10 38q2 38 -11 98q-27 133 -108 251q-40 58 -67 84
q-29 27 -36 23q-9 -5 -10 -42q-2 -40 10 -105q25 -141 108 -252q44 -57 68 -76q29 -23 36 -19z" />
    <glyph glyph-name="uniE80D" unicode="&#xe80d;" horiz-adv-x="930" 
d="M165 0q0 40 30 70t70 30q41 0 70.5 -29.5t29.5 -70.5q0 -42 -29 -71t-71 -29q-41 0 -70.5 29.5t-29.5 70.5zM665 0q0 40 30 70t70 30q41 0 70.5 -29.5t29.5 -70.5q0 -42 -29 -71t-71 -29q-41 0 -70.5 29.5t-29.5 70.5zM343 236q-18 -5 -26.5 -10.5t-7.5 -12.5
q1 -13 44 -13h562v-76q0 -20 -20 -20h-654q-20 0 -20 20v76q-18 84 -54 250t-54 250h-98v80q0 20 20 20h156q20 0 20 -20v-86h704v-274q0 -22 -18 -26z" />
    <glyph glyph-name="uniE80E" unicode="&#xe80e;" horiz-adv-x="390" 
d="M325 800q21 0 35.5 -15t14.5 -35v-850l-180 180l-180 -180v850q0 50 40 50h270z" />
    <glyph glyph-name="uniE80F" unicode="&#xe80f;" horiz-adv-x="1029" 
d="M276 800q46 0 78 -42t32 -102t-32 -102.5t-78 -42.5t-77.5 42.5t-31.5 102.5t31.5 102t77.5 42zM924 -84q-106 111 -250 154t-292 9t-262 -141l-15 -15q-16 -16 -38 -15.5t-37 16.5t-15 38t16 38q129 130 302 177t347 2.5t305 -173.5l14 -14q15 -16 15 -38.5t-16 -38.5
t-37.5 -15.5t-36.5 16.5zM753 800q46 0 77.5 -42t31.5 -102t-31.5 -102.5t-77.5 -42.5t-78 42.5t-32 102.5t32 102t78 42z" />
    <glyph glyph-name="uniE810" unicode="&#xe810;" horiz-adv-x="918" 
d="M322 659q15 18 37.5 20t40.5 -13q17 -15 18 -36.5t-14 -38.5q-34 -40 -82.5 -62.5t-100.5 -22.5q-58 0 -110 27t-86 75q-13 18 -9 40t22 35t40 9t35 -22q32 -46 87 -55t99 23q13 10 23 21zM807 659q15 18 37.5 20t40.5 -13q17 -15 18.5 -36.5t-13.5 -38.5
q-34 -40 -83 -62.5t-101 -22.5q-58 0 -110 27t-86 75q-13 18 -9 40t22 35t40 9t35 -22q32 -46 87 -55t99 23q13 10 23 21zM118 7q-22 0 -38 15.5t-16 38.5q0 22 15.5 37.5t38.5 15.5h682q23 0 38.5 -15.5t15.5 -37.5q0 -23 -16 -38.5t-38 -15.5h-682z" />
    <glyph glyph-name="uniE811" unicode="&#xe811;" horiz-adv-x="1029" 
d="M924 185q15 16 36.5 16.5t37.5 -15.5t16 -38.5t-15 -38.5q-125 -131 -296 -181.5t-346 -10t-309 166.5l-17 17q-16 16 -16 38t15 38t37 16.5t38 -15.5l12 -12l3 -3q114 -107 262.5 -140.5t292.5 9.5t249 153zM619 499q-23 0 -38.5 15.5t-15.5 38.5t15.5 38.5t38.5 15.5
h267q22 0 38 -15.5t16 -38.5t-16 -38.5t-38 -15.5h-267zM143 499q-23 0 -38.5 15.5t-15.5 38.5t15.5 38.5t38.5 15.5h267q22 0 38 -15.5t16 -38.5t-16 -38.5t-38 -15.5h-267z" />
    <glyph glyph-name="uniE812" unicode="&#xe812;" horiz-adv-x="923" 
d="M400 581q-17 -16 -40 -13.5t-37 19.5q-37 47 -104.5 46t-105.5 -55q-13 -18 -35 -22t-40 9t-22 34.5t9 39.5q34 48 86 75t110 27q53 0 101 -22t82 -62q15 -17 14 -39t-18 -37zM885 581q-17 -16 -40 -13.5t-37 19.5q-37 47 -104.5 46t-105.5 -55q-13 -18 -35 -22t-40 9
t-22 34.5t9 39.5q34 48 86 75t111 27q53 0 101 -22t82 -62q15 -17 13.5 -39t-18.5 -37zM155 215q43 -86 125 -140t178 -57q104 -3 194.5 51.5t136.5 145.5h-634zM460 -87q-69 1 -143 29t-135.5 73.5t-102 112.5t-41.5 139q0 22 15 38t37 16h765q22 0 37.5 -15.5t15.5 -37.5
q-2 -72 -46 -139.5t-110 -114t-144 -74.5t-148 -27z" />
    <glyph glyph-name="uniE813" unicode="&#xe813;" horiz-adv-x="803" 
d="M679 800q46 0 77.5 -42t31.5 -102t-31.5 -102.5t-77.5 -42.5t-78 42.5t-32 102.5t32 102t78 42zM336 594h-267q-23 0 -38.5 16t-15.5 38t15.5 38t38.5 16h267q22 0 38 -16t16 -38t-16 -38t-38 -16zM526 23q95 0 182 41q20 9 40 1.5t30 -27.5t2 -40.5t-28 -29.5l1 -1
q-107 -49 -227 -49q-136 0 -253 63q-85 46 -150 120.5t-99 168.5q-8 21 1 41t30 27q21 8 41 -1.5t27 -30.5q33 -90 99 -156.5t156 -99.5q75 -27 148 -27z" />
    <glyph glyph-name="uniE814" unicode="&#xe814;" horiz-adv-x="1468" 
d="M907 317q0 -50 33 -50q16 0 27 -11t11 -27t-11 -26.5t-27 -10.5q-12 0 -24 -10q-11 -11 -11 -32.5t11 -32.5q9 -11 24 -11q16 0 27 -10.5t11 -26.5q0 -15 -11 -26.5t-27 -10.5q-16 0 -26 -13q-13 -16 -5 -47q6 -24 30 -24h331q30 1 52.5 22.5t22.5 51.5v253q0 15 -38 104
q-12 27 -33 91t-31 88q-1 3 -5.5 15.5t-8.5 20t-10 17t-14 13t-18 0.5q-30 -6 -40.5 -51t-3 -93.5t21.5 -75.5q10 -19 -1.5 -37t-31.5 -18q-30 0 -119.5 -1.5t-88.5 -2.5q-17 -10 -17 -28zM820 67q-33 41 -31.5 94t31.5 87q-30 37 -30 98q0 52 36 87t87 35l130 -1
q-34 208 93 265q75 19 120.5 -10t75.5 -101q59 -139 73 -172q3 -6 11.5 -26.5t13.5 -32t11 -29.5t9 -33t3 -29v-286q0 -68 -49 -116.5t-117 -50.5l-376 -1q-38 0 -64 17q-40 25 -53.5 80.5t8.5 97.5q14 22 18 27zM536 80q23 4 40.5 -11.5t19.5 -37.5q1 -24 -14 -39.5
t-40 -17.5q-93 -6 -180 19q-113 32 -203 109t-139 186q-9 20 -1.5 40.5t27.5 29.5t41 1.5t30 -27.5q39 -88 111.5 -149.5t162.5 -87.5q74 -20 145 -15zM156 653q-22 0 -37.5 15.5t-15.5 37.5t15.5 38t37.5 16h289q22 0 37.5 -16t15.5 -38t-15.5 -37.5t-37.5 -15.5h-289z
M754 840q45 0 76.5 -42t31.5 -101t-31.5 -100.5t-76.5 -41.5t-76.5 41.5t-31.5 100.5t31.5 101t76.5 42z" />
    <glyph glyph-name="uniE815" unicode="&#xe815;" 
d="M515 702zM515 702zM515 702zM515 702zM515 702zM515 702zM515 702zM515 702zM254 668q1 0 2.5 -1t2.5 -2q8 -6 11 -11q6 -13 2 -24.5t-14 -16.5q-62 -34 -106 -81q-8 -8 -19.5 -22.5t-14.5 -18.5q-11 -12 -25 -11q-13 2 -20 10q-35 41 -50.5 108.5t0.5 130.5
q16 60 58 101q18 16 37 19q14 2 23 -2q16 -6 22 -23l3 -9q1 -8 -0.5 -26.5t0.5 -27.5q7 -41 40 -67q10 -8 21 -14q15 -8 27 -12zM776 668q12 4 27 12q11 6 21 14q48 38 40 95q-2 15 0 26q0 1 1 4t1 5q6 16 23 23q9 4 23 2q39 -7 74 -67q12 -19 21 -53q15 -69 0 -133.5
t-50 -105.5q-7 -8 -20 -10q-14 -1 -25 11q-3 4 -14.5 18.5t-19.5 22.5q-47 50 -107 82q-10 6 -14 16.5t2 23.5q3 5 11 11zM792 462q35 -47 35.5 -114t-34.5 -115q-36 -49 -87 -49q-57 0 -89.5 51.5t-32.5 110.5v1q0 3 0.5 8.5t0.5 7.5q1 1 3 2t3 2zM237 462l201 -95
q1 -1 3.5 -2t3.5 -2q0 -2 0.5 -7.5t0.5 -8.5v-1q0 -59 -32.5 -110.5t-89.5 -51.5q-56 5 -88 49q-35 48 -35 115.5t36 113.5zM852 73q16 -15 16 -36.5t-15 -37.5q-42 -45 -85 -73q-124 -82 -273 -76v1q-97 4 -179 44.5t-140 103.5q-15 16 -14 38t17 37t38 14t37 -17
q99 -108 245 -115v1q79 -4 153.5 28t122.5 85q14 17 37 18t40 -15z" />
    <glyph glyph-name="uniE816" unicode="&#xe816;" horiz-adv-x="726" 
d="M380 310h-34q-39 0 -67.5 -28.5t-28.5 -67.5v-162q0 -39 28.5 -67.5t67.5 -28.5v1h34v-1q39 0 67.5 28.5t28.5 67.5v162q0 39 -28.5 67.5t-67.5 28.5zM143 214q0 84 59.5 143.5t143.5 59.5h34q84 0 143.5 -59.5t59.5 -143.5v-162q0 -84 -59.5 -143.5t-143.5 -59.5h-34
q-84 0 -143.5 59.5t-59.5 143.5v162zM125 849q46 0 77.5 -42.5t31.5 -102.5t-31.5 -102t-77.5 -42t-78 42t-32 102t32 102.5t78 42.5zM601 849q46 0 78 -42.5t32 -102.5t-32 -102t-78 -42t-78 42t-32 102t32 102.5t78 42.5z" />
    <glyph glyph-name="uniE817" unicode="&#xe817;" horiz-adv-x="854" 
d="M539 59v72h-224v-73q0 -45 28 -73q29 -29 84 -29t84 29q28 28 28 74zM68 132q-22 0 -37.5 15.5t-15.5 37.5t15.5 38t37.5 16q120 0 359 0.5t359 0.5q22 0 37.5 -16t15.5 -38t-15.5 -37.5t-37.5 -15.5h-140v-74q0 -89 -60 -149t-153 -60q-107 0 -166 60q-59 59 -59 148v74
h-140zM189 800q46 0 78 -42t32 -102t-32 -102.5t-78 -42.5t-78 42.5t-32 102.5t32 102t78 42zM665 800q46 0 78 -42t32 -102t-32 -102.5t-78 -42.5t-77.5 42.5t-31.5 102.5t31.5 102t77.5 42z" />
    <glyph glyph-name="uniE818" unicode="&#xe818;" 
d="M318 380q-58 0 -91.5 55.5t-29.5 121.5l-152 80q-20 10 -27.5 30.5t2.5 40.5t30.5 27.5t40.5 -2.5q34 -17 108 -55.5t130.5 -66.5t110.5 -52q4 -63 -28 -121t-94 -58zM833 557q4 -66 -30 -121.5t-92 -55.5q-62 0 -93.5 58t-27.5 121q54 24 110.5 52t130.5 66.5t108 55.5
q20 10 40.5 2.5t30.5 -27.5t2 -40.5t-28 -30.5zM924 -84q-106 111 -250 154t-292 9t-262 -141l-15 -15q-16 -16 -38 -15.5t-37 16.5t-15 38t16 38q129 130 302 177t347 2.5t305 -173.5l14 -14q15 -16 15.5 -38.5t-15.5 -38.5t-38 -15.5t-37 16.5z" />
    <glyph glyph-name="uniE819" unicode="&#xe819;" horiz-adv-x="887" 
d="M176 -79q-66 0 -113.5 47.5t-47.5 113.5v536q0 66 47.5 113.5t113.5 47.5h535q66 0 113.5 -47.5t47.5 -113.5v-536q0 -66 -47.5 -113.5t-113.5 -47.5h-535zM158 82q0 -8 5 -13t13 -5h107q7 0 12.5 5t5.5 13v357q0 7 -5.5 12.5t-12.5 5.5h-107q-8 0 -13 -5.5t-5 -12.5
v-357zM158 567q0 -29 20 -49.5t48 -20.5t49 20.5t21 49.5q0 28 -20.5 48.5t-49.5 20.5q-28 0 -48 -20t-20 -49zM336 82q0 -7 9 -12.5t17 -5.5h101q7 0 11.5 5.5t4.5 12.5v195q0 78 64 78q26 0 34.5 -12t8.5 -42v-219q0 -7 7 -12.5t15 -5.5h103q7 0 12.5 5t5.5 13v243
q0 70 -41 107t-113 37q-51 0 -88 -25q-4 -3 -8 -7q0 20 -19 20h-98q-9 0 -17.5 -4t-8.5 -11v-360z" />
    <glyph glyph-name="uniE81A" unicode="&#xe81a;" horiz-adv-x="1655" 
d="M1068 -154q-84 0 -144 60t-60 145v267v4q0 17 13 29.5t30 12.5h605q52 0 90 -38t38 -90v-115q0 -52 -37.5 -89.5t-90.5 -37.5h-30q-19 -63 -70.5 -105.5t-124.5 -42.5h-219zM1493 266h-522v-211q0 -49 33 -79q32 -32 78 -32h202h3q44 1 73.5 31t33.5 70q1 15 12.5 25
t26.5 10h60q17 0 28.5 12t11.5 28v106q0 14 -12 29q-11 11 -28 11zM1413 120v93h32q15 0 26 -11t11 -26v-19q0 -15 -11 -26t-26 -11h-32zM1171 795q12 18 32.5 21.5t38.5 -8.5t22 -32.5t-8 -38.5q-7 -10 -9 -21.5t2 -26.5t7.5 -23t11.5 -26q13 -28 18 -41t10.5 -37.5
t1.5 -40t-17.5 -36.5t-38.5 -40q-17 -13 -38 -10t-34 20t-10.5 38t19.5 34q9 7 10 19.5t-3 22.5t-12 28q-13 28 -19.5 45.5t-11.5 45t2 54t26 53.5zM315 95q-22 0 -37.5 15.5t-15.5 37.5t15.5 37.5t37.5 15.5h288q22 0 37.5 -15.5t15.5 -37.5t-15.5 -37.5t-37.5 -15.5h-288z
M400 540q-17 -15 -40 -13t-37 19q-10 12 -24 22q-44 32 -99 23t-87 -55q-13 -18 -35 -22t-40 9t-22 35t9 40q34 48 86 75t110 27q53 0 101 -22t82 -62q15 -17 14 -39t-18 -37zM885 540q-17 -16 -40 -13.5t-37 19.5q-37 47 -104.5 45.5t-105.5 -55.5q-13 -18 -35 -22t-40 9
t-22 35t9 40q34 48 86 75t110 27q53 0 101.5 -22t82.5 -62q15 -17 13.5 -39t-18.5 -37z" />
    <glyph glyph-name="uniE81B" unicode="&#xe81b;" horiz-adv-x="917" 
d="M0 340q-3 16 21 37l381 352q24 21 57 21t57 -21l380 -352q21 -19 21 -34.5t-30 -17.5h-92v-305q0 -32 -23 -55t-54 -23h-518q-32 0 -55 23t-23 55v305h-92q-27 0 -30 15z" />
    <glyph glyph-name="uniE81C" unicode="&#xe81c;" horiz-adv-x="1251" 
d="M1238 -50h-1224v900h1224v-900zM1166 706v72h-108v-72h108zM986 706v72h-108v-72h108zM770 706v72h-108v-72h108zM1166 166v468h-288v-468h288zM590 706v72h-108v-72h108zM1166 22v72h-108v-72h108zM374 706v72h-108v-72h108zM770 166v468h-288v-468h288zM986 22v72h-108
v-72h108zM194 706v72h-108v-72h108zM770 22v72h-108v-72h108zM374 166v468h-288v-468h288zM590 22v72h-108v-72h108zM374 22v72h-108v-72h108zM86 22h108v72h-108v-72z" />
    <glyph glyph-name="uniE81D" unicode="&#xe81d;" horiz-adv-x="1000" 
d="M0 133h1000v-195h-1000v195zM0 426h1000v-195h-1000v195zM0 719h1000v-195h-1000v195zM949 280v99h-543v-99h543zM949 573v99h-322v-99h322zM746 -13h203v99h-203v-99z" />
    <glyph glyph-name="uniE81E" unicode="&#xe81e;" horiz-adv-x="1004" 
d="M209 850h438q107 0 181 -74q81 -79 52 -229q-28 -135 -128 -214q-99 -78 -234 -78h-183l-63 -296h-257zM115 -150l11 49h216l63 295h183q135 0 234 78q100 79 128 214q21 96 -12 170q71 -85 43 -219q-30 -136 -129 -214t-233 -78h-184l-63 -295h-257zM639 605
q-8 28 -31 46t-56 18h-125l-55 -244h83l42 183h125q2 0 17 -3zM497 426q50 2 91 38.5t51 82.5q0 1 1 6t1 6h-114z" />
    <glyph glyph-name="uniE81F" unicode="&#xe81f;" horiz-adv-x="986" 
d="M68 650h850q20 0 35 -15t15 -35v-500q0 -20 -15 -35t-35 -15h-850q-20 0 -35 15t-15 35v500q0 20 15 35t35 15zM43 550v-100h900v100h-900zM68 250v-100h150v100h-150zM518 200v-50h350v50h-350z" />
    <glyph glyph-name="uniE838" unicode="&#xe838;" 
d="M335 586q-11 -5 -16 5l-91 157q-6 10 4 16l61 35q11 5 16 -5l91 -157q6 -10 -4 -16zM276 525l-35 -60q-5 -10 -16 -5l-158 92q-9 5 -4 15l35 61q5 10 16 4l158 -91q12 -6 4 -16zM220 381v-69q0 -11 -11 -11h-182q-12 0 -12 11v1v69q0 4 3.5 8t8.5 4h182q11 0 11 -12v-1z
M279 170q5 -11 -5 -16l-157 -91q-10 -6 -16 4l-35 61q-5 11 5 16l157 91q10 6 16 -4zM340 111l60 -35q10 -5 5 -16l-92 -158q-5 -9 -15 -4l-61 35q-10 5 -4 16l91 158q6 12 16 4zM484 55h69q11 0 11 -11v-182q0 -12 -11 -12h-1h-69q-5 0 -8.5 4t-3.5 8v182q0 11 12 11h1z
M695 114q11 5 16 -5l91 -157q6 -10 -4 -16l-61 -35q-11 -5 -16 5l-91 157q-6 10 4 16zM754 175l35 60q5 10 16 5l158 -92q9 -5 4 -15l-35 -61q-5 -10 -16 -4l-158 91q-12 6 -4 16zM810 319v69q0 11 11 11h182q12 0 12 -11v-1v-69q0 -4 -3.5 -8t-8.5 -4h-182q-11 0 -11 12v1z
M751 530q-5 11 5 16l157 91q10 6 16 -4l35 -61q5 -11 -5 -16l-157 -91q-10 -6 -16 4zM690 589l-60 35q-10 5 -5 16l92 158q5 9 15 4l61 -35q10 -5 4 -16l-91 -158q-6 -12 -16 -4zM546 645h-69q-11 0 -11 11v182q0 12 11 12h1h69q5 0 8.5 -4t3.5 -8v-182q0 -11 -12 -11h-1z
" />
    <glyph glyph-name="uniF008" unicode="&#xf008;" horiz-adv-x="938" 
d="M0 62q0 29 21.5 50.5t50.5 21.5h794q29 0 50.5 -21.5t21.5 -50.5t-21.5 -50.5t-50.5 -21.5h-794q-29 0 -50.5 21.5t-21.5 50.5zM0 350q0 29 21.5 50.5t50.5 21.5h794q29 0 50.5 -21.5t21.5 -50.5t-21.5 -50.5t-50.5 -21.5h-794q-29 0 -50.5 21.5t-21.5 50.5zM0 639
q0 29 21.5 50.5t50.5 21.5h794q29 0 50.5 -21.5t21.5 -50.5t-21.5 -50.5t-50.5 -21.5h-794q-29 0 -50.5 21.5t-21.5 50.5z" />
    <glyph glyph-name="uniF009" unicode="&#xf009;" horiz-adv-x="938" 
d="M0 62q0 29 21.5 50.5t50.5 21.5h32q29 0 50.5 -21.5t21.5 -50.5t-21.5 -50.5t-50.5 -21.5h-32q-29 0 -50.5 21.5t-21.5 50.5zM0 350q0 29 21.5 50.5t50.5 21.5h32q29 0 50.5 -21.5t21.5 -50.5t-21.5 -50.5t-50.5 -21.5h-32q-29 0 -50.5 21.5t-21.5 50.5zM0 639
q0 29 21.5 50.5t50.5 21.5h32q29 0 50.5 -21.5t21.5 -50.5t-21.5 -50.5t-50.5 -21.5h-32q-29 0 -50.5 21.5t-21.5 50.5zM234 62q0 29 21.5 50.5t50.5 21.5h560q29 0 50.5 -21.5t21.5 -50.5t-21.5 -50.5t-50.5 -21.5h-560q-29 0 -50.5 21.5t-21.5 50.5zM234 350
q0 29 21.5 50.5t50.5 21.5h560q29 0 50.5 -21.5t21.5 -50.5t-21.5 -50.5t-50.5 -21.5h-560q-29 0 -50.5 21.5t-21.5 50.5zM234 639q0 29 21.5 50.5t50.5 21.5h560q29 0 50.5 -21.5t21.5 -50.5t-21.5 -50.5t-50.5 -21.5h-560q-29 0 -50.5 21.5t-21.5 50.5z" />
    <glyph glyph-name="uniF00A" unicode="&#xf00a;" horiz-adv-x="938" 
d="M52 -117q-21 0 -36.5 15t-15.5 36v287q0 21 15.5 36.5t36.5 15.5h285q21 0 37 -15.5t16 -36.5v-287q0 -21 -16 -36t-37 -15h-285zM52 428q-21 0 -36.5 15.5t-15.5 36.5v286q0 21 15.5 36.5t36.5 15.5h285q21 0 37 -15.5t16 -36.5v-286q0 -21 -16 -36.5t-37 -15.5h-285z
M599 -117q-21 0 -36.5 15t-15.5 36v287q0 21 15.5 36.5t36.5 15.5h287q21 0 36.5 -15.5t15.5 -36.5v-287q0 -21 -15.5 -36t-36.5 -15h-287zM547 480v286q0 21 15.5 36.5t36.5 15.5h287q21 0 36.5 -15.5t15.5 -36.5v-286q0 -21 -15.5 -36.5t-36.5 -15.5h-287
q-21 0 -36.5 15.5t-15.5 36.5z" />
    <glyph glyph-name="uniF00B" unicode="&#xf00b;" horiz-adv-x="938" 
d="M52 -117q-21 0 -36.5 15t-15.5 36v287q0 21 15.5 36.5t36.5 15.5h286q21 0 36.5 -15.5t15.5 -36.5v-287q0 -21 -15.5 -36t-36.5 -15h-286zM52 428q-21 0 -36.5 15.5t-15.5 36.5v286q0 21 15.5 36.5t36.5 15.5h286q21 0 36.5 -15.5t15.5 -36.5v-286q0 -21 -15.5 -36.5
t-36.5 -15.5h-286zM302 -29v213h-214v-213h214zM302 516v214h-214v-214h214zM599 -117q-21 0 -36.5 15t-15.5 36v287q0 21 15.5 36.5t36.5 15.5h287q21 0 36.5 -15.5t15.5 -36.5v-287q0 -21 -15.5 -36t-36.5 -15h-287zM599 428q-21 0 -36.5 15.5t-15.5 36.5v286
q0 21 15.5 36.5t36.5 15.5h287q21 0 36.5 -15.5t15.5 -36.5v-286q0 -21 -15.5 -36.5t-36.5 -15.5h-287zM850 -29v213h-214v-213h214zM636 516h214v214h-214v-214z" />
    <glyph glyph-name="uniF018" unicode="&#xf018;" horiz-adv-x="938" 
d="M0 350q0 100 38.5 186t98.5 146t146.5 98.5t185.5 38.5t185.5 -38.5t146.5 -98.5t98.5 -146t38.5 -186q0 -99 -38.5 -185.5t-98.5 -146.5t-146.5 -98.5t-185.5 -38.5t-185.5 38.5t-146.5 98.5t-98.5 146.5t-38.5 185.5zM179 562q-3 6 -5 6q-7 2 -18 -1q-68 -98 -68 -217
q0 -155 108 -265q108 -109 262 -115q-5 6 -8.5 21t-6 36t-3.5 29q-4 17 -17 54q-5 15 -10 19t-23 5q-9 1 -26.5 1t-28.5 0.5t-25 3t-23 5.5q-40 16 -46 55q-11 63 38 103q41 34 116 33q25 0 42 -13q5 -5 10.5 -8.5t12.5 -5.5t11.5 -3.5t14 -2.5t13.5 -1.5t16 -1.5t16 -1
q30 -2 50 9v6q0 3 0.5 8.5t1 9t-1 7t-4.5 5.5q-2 1 -20 1t-20 4q-9 8 2 16.5t29.5 15.5t21.5 10q13 15 -6 19q-27 5 -44 -9q-5 -5 -14 -22t-13 -23q-6 -11 -9 -15q-2 3 -11 12q-2 2 -5.5 9.5t-7.5 17t-6 12.5q-6 13 -16 7q-1 -6 7 -22.5t8 -20.5q1 -23 -15 -5q-3 3 -5 6
q-2 2 -5 8t-5 9t-6 6.5t-9.5 4.5t-12.5 0q-17 -2 -27 -15q-7 -7 -10 -8q-3 -17 -26 -16q-29 0 -34 8q-3 5 2.5 22t8.5 20q6 8 43 8q1 7 -6 16t-7 10q-1 4 -1 8q0 5 10 5h7q16 1 33 14t22 15q4 2 4.5 1.5t1.5 -1t5 -0.5q1 0 6 -4t7 -5q5 -1 17.5 4t16.5 9q10 9 17 25.5
t0 27.5q-7 9 -16 5.5t-13 -12.5q-2 -4 -4.5 -15.5t-7.5 -15t-16 -4.5q-25 -2 -25 16q0 2 0.5 9.5t0.5 8.5q0 6 2.5 11.5t4.5 8t7.5 7.5t6.5 6q16 16 36 16q8 0 56 -9q17 -3 36 18q2 3 7.5 7.5t8 9t2.5 11.5t-1.5 33t0 41.5t8.5 27.5q-64 23 -129 23q-46 0 -94 -12l-1 -3
q0 -18 2.5 -22t15.5 -6q3 0 12.5 -1t14.5 -2t11 -3.5t7.5 -7.5t-0.5 -13q-7 -29 -51 -60q-17 -13 -49 -18q-1 0 -7 -1l-6 -1h-8h-9q-2 0 -7.5 0.5t-8 1.5t-5.5 3t-4 5.5t-1 7.5q0 12 10 19t31.5 13.5t22.5 6.5q1 12 -3.5 16t-11.5 2l-17 -6q-9 -3 -17.5 -6t-14.5 1
q-1 5 1.5 9t7 7t5.5 5q4 10 -8 18q-28 -15 -53 -35q11 -2 18 -6.5t6 -13.5q0 -12 -19 -26q-11 -10 -14.5 -14t-7 -11.5t-6.5 -20.5q-5 -17 -11 -21q-19 -10 -21 18v8zM582 278q-1 -30 20 -53q27 -29 52 -33q6 -1 28 2t25 3q0 -18 -19 -53q-24 -41 -40 -55q-17 -15 -17 -27
q0 -5 5 -13.5t5 -11.5q0 -15 -12 -20q-8 -4 -22 -14.5t-21 -14.5q115 37 190 138q74 100 74 224q0 4 -2 36q-7 -10 -7 -33q0 -2 0.5 -11.5t0.5 -14.5t-1.5 -13t-5 -8t-10.5 2q-3 2 -10 8.5t-11 8.5q-35 24 -58 13q-18 -9 -39 -9q-3 0 -12 0.5t-11 0.5q-13 0 -21 -5
q2 -28 24 -30q6 0 10.5 5t6.5 6q9 5 23 4q2 -21 1 -27.5t-7 -15.5q-4 -6 -8 -23.5t-12 -24.5q-19 -17 -34 -7q-3 3 -11 12t-12 12q-3 3 -17 22q-3 4 -20 16.5t-20 15.5q-4 -3 -5 -12z" />
    <glyph glyph-name="uniF01A" unicode="&#xf01a;" horiz-adv-x="938" 
d="M0 473q0 31 24 53t57 22h215l164 -249l89 520h306q33 0 58 -22.5t25 -54.5t-25 -54.5t-58 -22.5h-170l-136 -784l-342 516h-126q-33 0 -57 22.5t-24 53.5z" />
    <glyph glyph-name="uniF029" unicode="&#xf029;" horiz-adv-x="912" 
d="M2 207q5 24 25 41.5t46 17.5h149l37 169h-136q-28 0 -45.5 21.5t-11.5 50.5q5 24 25 41.5t46 17.5h149l32 150q5 24 25.5 41.5t46.5 17.5q29 0 46.5 -21t10.5 -51l-29 -137h168l31 150q5 24 25.5 41.5t46.5 17.5q29 0 46.5 -21t11.5 -51l-29 -137h135q28 0 46 -21.5
t12 -50.5q-5 -24 -25 -41.5t-46 -17.5h-149l-37 -169h136q28 0 45.5 -21.5t11.5 -51.5q-5 -24 -25 -41.5t-46 -17.5h-150l-31 -150q-5 -24 -25.5 -41t-46.5 -17q-28 0 -45.5 21t-11.5 50l29 137h-168l-32 -150q-5 -24 -25.5 -41t-46.5 -17q-28 0 -45.5 21t-11.5 50l29 137
h-136q-28 0 -45.5 21.5t-11.5 51.5zM355 266h167l36 169h-168z" />
    <glyph glyph-name="uniF06A" unicode="&#xf06a;" horiz-adv-x="830" 
d="M0 48q0 68 48 118l402 405q31 31 76 31q44 0 75.5 -32t31.5 -76t-32 -76l-301 -304l-54 56l301 304q8 8 8 20q0 13 -8.5 21.5t-20.5 8.5q-13 0 -22 -9l-401 -404q-25 -25 -25 -63q0 -37 25.5 -62.5t62.5 -25.5q36 0 62 26l482 484q43 45 43 104q0 60 -43 102.5t-103 42.5
t-103 -43l-366 -369l-55 56l367 369q65 65 157 65q93 0 158 -65t65 -158q0 -95 -65 -160l-482 -484q-49 -49 -117 -49t-117 49.5t-49 117.5z" />
    <glyph glyph-name="uniF075" unicode="&#xf075;" horiz-adv-x="690" 
d="M655 396q14 0 24.5 -9.5t10.5 -23.5v-393q0 -5 -1.5 -9t-3 -7t-6.5 -6l-7 -3q-2 -1 -8.5 -4t-8.5 -4q-32 -14 -101 -31q-98 -25 -209 -25q-153 0 -310 56q-35 12 -35 33v393q0 14 10.5 23.5t24.5 9.5h449v149q0 61 -40.5 106t-98.5 45t-98.5 -45t-40.5 -106v-38h-126v38
q0 112 76 193t189 81t189 -81t76 -193v-149h45zM187 141q0 -12 8 -20l86 -84q8 -8 20 -8q14 0 21 8l175 171q9 9 9 21t-8.5 20.5t-20.5 8.5q-13 0 -21 -8l-155 -151l-64 62q-9 9 -21 9t-20.5 -8.5t-8.5 -20.5z" />
    <glyph glyph-name="uniF07B" unicode="&#xf07b;" horiz-adv-x="888" 
d="M142 162q0 -47 33.5 -81t80.5 -34q48 0 82 33l27 28q79 -38 164 -35l-91 -92q-44 -44 -108.5 -65t-138.5 -1q-65 17 -115 67t-67 115q-20 74 1 138.5t65 108.5l132 131q45 45 108.5 65.5t137.5 0.5q67 -18 115 -66q21 -21 21 -50t-20.5 -49.5t-49.5 -20.5q-30 0 -50 20
q-35 35 -82 35q-48 0 -81 -35l-131 -131q-33 -34 -33 -82zM299 276q0 28 21 49t50 21q30 0 50 -20q33 -35 81 -35q47 0 82 35l131 131q34 34 34 82q0 47 -34 81t-81 34q-48 0 -82 -34l-27 -27q-78 36 -164 35l91 92q44 44 108.5 65t138.5 1q65 -17 115 -67t67 -115
q20 -74 -1 -138t-66 -109l-131 -131q-44 -44 -108.5 -65t-138.5 -1q-67 18 -115 66q-21 21 -21 50z" />
    <glyph glyph-name="uniF097" unicode="&#xf097;" horiz-adv-x="744" 
d="M80 -66q-27 0 -46 18.5t-19 44.5v719q0 26 19 44.5t46 18.5h585q27 0 45.5 -18.5t18.5 -44.5v-719q0 -27 -18 -44.5t-46 -17.5q-27 0 -47 18l-246 236l-246 -236q-21 -19 -46 -19zM86 14q48 46 143 137t143 137q48 -46 143.5 -137.5t142.5 -136.5v693h-572v-693z" />
    <glyph glyph-name="uniF099" unicode="&#xf099;" horiz-adv-x="1076" 
d="M15 32q0 8 5.5 13t12.5 5q5 0 25 -1t25 -1q112 0 209 59q-58 13 -101.5 53.5t-61.5 96.5q-1 3 -1 6q0 7 5 12t12 5q2 0 8 -1t7 -1q-47 30 -78 80t-31 111q0 8 6.5 14.5t14.5 6.5q2 0 10.5 -3t17 -7t9.5 -4q-52 63 -52 142q0 68 31 114q6 9 14 9t15 -7q37 -41 62 -64
q141 -127 330 -144q-2 16 -2 27q0 93 66 159q67 67 160 67q90 0 157 -64q52 10 117 46q5 3 9 3q17 0 17 -18q0 -14 -16 -42t-28 -42q21 7 41 15q9 4 13 4q18 0 18 -17q0 -7 -2 -10q-36 -58 -100 -106v-19q2 -128 -56 -255q-71 -156 -214.5 -254.5t-337.5 -98.5
q-146 0 -279 69q-34 17 -49 27q-8 5 -8 15z" />
    <glyph glyph-name="uniF09A" unicode="&#xf09a;" horiz-adv-x="459" 
d="M15 393v112q0 9 6 15t15 6h68v57q0 196 198 196q66 0 126 -17q19 -6 16 -24l-15 -108q-1 -8 -8.5 -13.5t-17.5 -4.5q-42 9 -75 9q-27 0 -34.5 -8.5t-7.5 -37.5v-49h121q9 0 15 -7t5 -16l-7 -112q-1 -8 -7 -14t-15 -6h-112v-428q0 -9 -6.5 -15.5t-14.5 -6.5h-140
q-9 0 -15 6.5t-6 15.5v428h-68q-9 0 -15 6.5t-6 15.5z" />
    <glyph glyph-name="uniF0A3" unicode="&#xf0a3;" horiz-adv-x="888" 
d="M16 236q-6 23 12 39l77 75l-77 75q-17 17 -11 40t28 28l105 27l-29 103q-6 24 10 39q16 17 39 11l104 -29l27 104q5 22 28 28.5t40 -10.5l75 -77l75 77q17 17 40 10.5t28 -28.5l26 -104l104 29q23 6 39 -11q17 -16 11 -39l-30 -103l105 -27q22 -5 28.5 -28t-10.5 -40
l-77 -75l77 -75q17 -17 10.5 -40t-28.5 -28l-105 -27l30 -103q6 -23 -11 -39q-16 -17 -39 -11l-104 29l-26 -104q-7 -31 -39 -31q-18 0 -29 13l-75 77l-75 -77q-16 -17 -40 -11q-22 6 -28 29l-27 104l-104 -29q-23 -6 -39 11q-16 15 -10 39l29 103l-105 27q-23 6 -29 29z
" />
    <glyph glyph-name="uniF0C3" unicode="&#xf0c3;" horiz-adv-x="844" 
d="M601 743q0 -14 -11 -25t-25 -11h-36v-223l281 -442q32 -51 12 -86t-78 -35h-643q-59 0 -79 36q-19 36 12 85l281 442v223h-36q-14 0 -24.5 11t-10.5 25t10.5 25t24.5 11h286q14 0 25 -11t11 -25zM224 207h397q-108 172 -163 257v243h-72v-243q-21 -33 -162 -257z" />
    <glyph glyph-name="uniF0CA" unicode="&#xf0ca;" 
d="M15 64q0 44 31.5 75.5t75.5 31.5t75.5 -31.5t31.5 -75.5t-31.5 -75.5t-75.5 -31.5t-75.5 31.5t-31.5 75.5zM15 350q0 44 31.5 75.5t75.5 31.5t75.5 -31.5t31.5 -75.5t-31.5 -75.5t-75.5 -31.5t-75.5 31.5t-31.5 75.5zM15 636q0 44 31.5 75.5t75.5 31.5t75.5 -31.5
t31.5 -75.5t-31.5 -75.5t-75.5 -31.5t-75.5 31.5t-31.5 75.5zM319 -7q-7 0 -12.5 5.5t-5.5 12.5v107q0 8 5.5 13t12.5 5h678q7 0 12.5 -5t5.5 -13v-107q0 -7 -5.5 -12.5t-12.5 -5.5h-678zM319 279q-18 0 -18 17v108q0 17 18 17h678q18 0 18 -17v-108q0 -17 -18 -17h-678z
M301 582v107q0 7 5.5 12.5t12.5 5.5h678q7 0 12.5 -5.5t5.5 -12.5v-107q0 -8 -5.5 -13t-12.5 -5h-678q-7 0 -12.5 5t-5.5 13z" />
    <glyph glyph-name="uniF0D0" unicode="&#xf0d0;" horiz-adv-x="944" 
d="M25 107l718 718q10 10 25 10t25 -10l110 -111q10 -10 10 -25t-10 -25l-717 -717q-11 -11 -25 -11t-25 11l-111 110q-10 10 -10 25t10 25zM71 779l55 16l17 55l17 -55l54 -16l-54 -17l-17 -55l-17 55zM179 671l109 34l33 109l34 -109l109 -34l-109 -33l-34 -109l-33 109z
M429 779l54 16l17 55l17 -55l54 -16l-54 -17l-17 -55l-17 55zM604 585l60 -59l164 163l-60 60zM786 421l54 17l17 55l17 -55l55 -17l-55 -16l-17 -55l-17 55z" />
    <glyph glyph-name="uniF0D4" unicode="&#xf0d4;" horiz-adv-x="887" 
d="M15 351q57 -66 152 -66q18 0 39 3q-11 -32 -11 -48q0 -36 35 -83q-131 -5 -215 -48v242zM15 611q0 70 46 119t115 49h535q66 0 113.5 -47.5t47.5 -113.5v-54h-143v143h-71v-143h-143v-71h143v-143h71v143h143v-411q0 -66 -47.5 -113.5t-113.5 -47.5h-261q22 40 22 88
q0 54 -21.5 89t-61.5 71q-5 5 -33 27t-39 37q-12 17 -12 33q0 33 44 72q38 35 59.5 71t21.5 90q0 44 -16 84t-41 63q-2 2 -10 7t-11 9l-2 2l-2 4q-1 1 -2 3h76l75 36h-244q-161 0 -238 -96zM22 35q47 88 214 88q21 0 27 -1q52 -35 86 -66q15 -15 27 -33q17 -25 17 -62
q0 -25 -5 -40h-212q-55 0 -97.5 33t-56.5 81zM69 536q0 55 29.5 93t79.5 38q72 0 113 -81q35 -70 35 -144q0 -123 -102 -123q-82 0 -129 104q-26 57 -26 113z" />
    <glyph glyph-name="uniF0D5" unicode="&#xf0d5;" horiz-adv-x="959" 
d="M457 734q37 -23 60 -67t23 -97q0 -77 -44 -125q-3 -3 -30 -29t-38 -41q-13 -17 -13 -38q0 -26 33 -55q5 -4 35 -28.5t39.5 -35t28 -34t25.5 -48.5t7 -56q0 -89 -79 -157q-85 -73 -234 -73q-118 0 -195 57q-60 43 -60 117q0 40 21.5 77t52.5 60q86 62 251 67
q-35 45 -35 83q0 9 2 17t5.5 17t4.5 14q-15 -2 -39 -2q-83 0 -143 54q-59 53 -59 138q0 80 54.5 140.5t128.5 77.5q60 12 105 12h244l-76 -45h-75zM118 50q0 -58 39.5 -92t99.5 -48q35 -9 71 -9q77 0 126.5 32.5t49.5 98.5q0 36 -29 79q-6 10 -31 31q-20 18 -70 52
q-6 1 -28 1q-164 0 -213 -86q-15 -25 -15 -59zM288 738q-51 0 -80 -37.5t-29 -92.5q0 -91 58 -166q40 -52 97 -52q103 0 103 124q0 69 -36 143q-16 34 -45.5 57.5t-67.5 23.5zM586 564v72h143v143h72v-143h143v-72h-143v-143h-72v143h-143z" />
    <glyph glyph-name="uniF0E1" unicode="&#xf0e1;" horiz-adv-x="800" 
d="M15 665q0 38 27.5 65.5t65.5 27.5t65.5 -27.5t27.5 -65.5t-27.5 -65.5t-65.5 -27.5t-65.5 27.5t-27.5 65.5zM40 -7q-8 0 -14 6t-6 13v485q0 7 6 13t14 6h137q7 0 13 -6t6 -13v-485q0 -8 -6 -13.5t-13 -5.5h-137zM271 12v485q0 7 6 13t14 6h133q13 0 16.5 -8.5t3.5 -26.5
q52 48 137 48q96 0 150 -48.5t54 -141.5v-327q0 -7 -6 -13t-14 -6h-141q-8 0 -13.5 5.5t-5.5 13.5v296q0 40 -15 58t-53 18q-89 0 -89 -109v-263q0 -8 -6 -13.5t-14 -5.5h-137q-8 0 -14 6t-6 13z" />
    <glyph glyph-name="uniF0E5" unicode="&#xf0e5;" 
d="M111 -150q-18 0 -24 21v1q-5 7 11 27q8 9 25 28t30 35.5t21 32.5q21 42 30 75q-87 50 -138 123t-51 157q0 97 67 179q65 81 180.5 129.5t252.5 48.5t252.5 -48.5t180.5 -129.5q67 -82 67 -179t-67 -179q-65 -81 -180.5 -129.5t-252.5 -48.5q-44 0 -81 4
q-111 -97 -257 -135q-27 -8 -63 -12h-3zM86 350q0 -63 40 -119q39 -55 113 -98l48 -28l-15 -54q-14 -51 -39 -96q81 33 154 96l24 21l31 -3q43 -5 73 -5q115 0 214 39.5t156 104.5q59 67 59 142t-59 142q-57 65 -156 104.5t-214 39.5q-114 0 -213.5 -39.5t-156.5 -104.5
q-59 -67 -59 -142z" />
    <glyph glyph-name="uniF0E6" unicode="&#xf0e6;" 
d="M163 198q-64 37 -106 93.5t-42 129.5q0 86 56.5 149.5t139.5 98.5q91 38 197 38q108 0 198.5 -39t141.5 -103q53 -67 53 -144q0 -86 -56.5 -149t-139.5 -98q-91 -38 -197 -38q-48 0 -98 9q-92 -65 -203 -81h-2q-8 0 -13.5 6t-5.5 14q0 5 12 21q5 7 18 20.5t21.5 24.5
t14.5 23q2 3 3.5 7t4 9.5t3.5 8.5zM86 421q0 -95 113 -161l54 -32l-19 -47q11 6 34 22l25 18l29 -6q46 -8 86 -8q86 0 160 29.5t117 78.5q44 50 44 106q0 57 -44 107q-43 49 -117 78.5t-160 29.5t-160.5 -30t-117.5 -78q-44 -50 -44 -107zM359 67q10 0 26.5 -1.5t22.5 -1.5
q186 0 320 97q144 105 144 260q0 45 -13 85q67 -37 111.5 -94.5t44.5 -132.5q0 -137 -148 -224q11 -28 25 -46q23 -29 27 -33q3 -3 7 -6.5t6 -5.5t4 -5l4 -6q2 -3 3 -8v-7q-2 -7 -7.5 -12.5t-12.5 -4.5q-112 16 -203 81q-50 -9 -98 -9q-150 0 -263 74z" />
    <glyph glyph-name="uniF0ED" unicode="&#xf0ed;" horiz-adv-x="1101" 
d="M15 243q0 76 41 136.5t103 89.5q-1 11 -1 24q0 118 84 202t202 84q92 0 162.5 -51t101.5 -127q40 35 93 35q59 0 101 -42t42 -101q0 -42 -23 -77q69 -16 117 -74t48 -135q0 -89 -62 -151q-63 -63 -152 -63h-607q-104 0 -177 73t-73 177zM301 332q0 -8 5 -13l196 -196
q5 -5 13 -5t13 5l196 196q5 5 5 13t-5.5 13t-12.5 5h-125v196q0 18 -17 18h-108q-17 0 -17 -18v-196h-125q-7 0 -12.5 -5t-5.5 -13z" />
    <glyph glyph-name="uniF0F0" unicode="&#xf0f0;" horiz-adv-x="816" 
d="M164 -79q-68 0 -108.5 39t-40.5 106q0 204 88 281q27 24 67 34q-12 -29 -12 -67v-113q-31 -10 -51.5 -37.5t-20.5 -63.5q0 -44 32 -75.5t76 -31.5t75.5 31.5t31.5 75.5q0 35 -21 63t-51 38v113q0 33 14 52q73 -58 165 -58q91 0 164 58q14 -19 14 -52v-35q-58 0 -100 -42
t-42 -101v-50q-18 -17 -18 -40q0 -22 15 -37.5t38 -15.5t38.5 15.5t15.5 37.5q0 24 -18 40v50q0 28 21.5 49.5t49.5 21.5q29 0 50.5 -21.5t21.5 -49.5v-50q-18 -17 -18 -40q0 -22 15.5 -37.5t38.5 -15.5q22 0 37.5 15.5t15.5 37.5q0 24 -18 40v50q0 41 -20 73t-51 50
q0 93 -12 122q37 -8 66 -33t46 -58q43 -85 43 -224q0 -67 -40.5 -106t-108.5 -39h-488zM158 100q0 14 11 25t25 11t24.5 -11t10.5 -25t-10.5 -25t-24.5 -11t-25 11t-11 25zM194 564q0 90 62 152q63 63 152 63q88 0 151 -63t63 -152q0 -88 -63 -151t-151 -63q-89 0 -152 63
q-62 62 -62 151z" />
    <glyph glyph-name="uniF0F2" unicode="&#xf0f2;" 
d="M140 -79q-51 0 -88 37t-37 88v465q0 51 37 88t88 37h36v-715h-36zM676 779q22 0 37.5 -15.5t15.5 -38.5v-89h72v-715h-572v715h72v89q0 23 15.5 38.5t37.5 15.5h322zM658 636v71h-286v-71h286zM854 -79v715h36q51 0 88 -37t37 -88v-465q0 -51 -37 -88t-88 -37h-36z" />
    <glyph glyph-name="uniF0F5" unicode="&#xf0f5;" horiz-adv-x="816" 
d="M86 356q-30 10 -50.5 38t-20.5 63v357q0 14 11 25t25 11t24.5 -11t10.5 -25v-232q0 -14 11 -25t25 -11t25 11t11 25v232q0 14 11 25t25 11t24.5 -11t10.5 -25v-232q0 -14 11 -25t25 -11t25 11t11 25v232q0 14 10.5 25t24.5 11t25 -11t11 -25v-357q0 -35 -20.5 -63
t-50.5 -38v-435q0 -28 -21.5 -49.5t-50.5 -21.5h-71q-29 0 -50.5 21.5t-21.5 49.5v435zM444 225v446q0 73 52.5 126t125.5 53h143q14 0 25 -11t11 -25v-893q0 -28 -21.5 -49.5t-50.5 -21.5h-71q-29 0 -50.5 21.5t-21.5 49.5v286h-125q-17 0 -17 18z" />
    <glyph glyph-name="uniF10D" unicode="&#xf10d;" horiz-adv-x="959" 
d="M122 -7q-44 0 -75.5 31.5t-31.5 75.5v393q0 118 84 202t202 84h35q14 0 25 -11t11 -25v-72q0 -14 -11 -24.5t-25 -10.5h-35q-59 0 -101 -42t-42 -101v-18q0 -23 15.5 -38.5t37.5 -15.5h125q44 0 76 -31.5t32 -75.5v-214q0 -44 -32 -75.5t-76 -31.5h-214zM515 100v393
q0 118 84 202t202 84h35q14 0 25 -11t11 -25v-72q0 -14 -11 -24.5t-25 -10.5h-35q-59 0 -101 -42t-42 -101v-18q0 -23 15.5 -38.5t37.5 -15.5h125q44 0 76 -31.5t32 -75.5v-214q0 -44 -32 -75.5t-76 -31.5h-214q-44 0 -75.5 31.5t-31.5 75.5z" />
    <glyph glyph-name="uniF10E" unicode="&#xf10e;" horiz-adv-x="959" 
d="M122 350q-44 0 -75.5 31.5t-31.5 75.5v214q0 44 31.5 76t75.5 32h214q44 0 76 -32t32 -76v-392q0 -118 -84 -202t-202 -84h-36q-14 0 -25 11t-11 25v71q0 14 11 25t25 11h36q58 0 100.5 42t42.5 101v17q0 22 -15.5 38t-38.5 16h-125zM515 457v214q0 44 31.5 76t75.5 32
h214q44 0 76 -32t32 -76v-392q0 -118 -84 -202t-202 -84h-36q-14 0 -25 11t-11 25v71q0 14 11 25t25 11h36q58 0 100.5 42t42.5 101v17q0 22 -15.5 38t-38.5 16h-125q-44 0 -75.5 31.5t-31.5 75.5z" />
    <glyph glyph-name="uniF304" unicode="&#xf304;" horiz-adv-x="887" 
d="M176 -79q-66 0 -113.5 47.5t-47.5 113.5v536q0 66 47.5 113.5t113.5 47.5h535q66 0 113.5 -47.5t47.5 -113.5v-536q0 -66 -47.5 -113.5t-113.5 -47.5h-535zM158 170q0 -9 8 -14q32 -24 80.5 -40t97.5 -16q75 0 139 32q87 41 140 125t52 195v6q15 13 34.5 35t19.5 34
q0 7 -5.5 12.5t-12.5 5.5l-8 -2q11 20 11 31q0 8 -5 13t-13 5q-3 0 -9 -3q-33 -19 -54 -24q-37 35 -86 35q-54 0 -91.5 -40.5t-36.5 -94.5v-7q-63 8 -106 36t-86 78q-6 6 -16 6q-14 0 -22.5 -27t-8.5 -49q0 -37 16 -66q-16 -2 -16 -18q0 -64 45 -104q-7 -5 -7 -14v-3l1 -2
q18 -61 75 -85q-44 -24 -92 -24q-2 0 -13 1t-13 1q-8 0 -13 -5t-5 -13z" />
    <glyph glyph-name="uniF306" unicode="&#xf306;" horiz-adv-x="931" 
d="M911 558q-31 -186 -171 -351q-141 -167 -245 -237q-33 -19 -61.5 -19.5t-54.5 16.5t-44.5 39t-29.5 46q-14 28 -78.5 238.5t-73.5 223.5q-27 20 -82 -16l-20 -14l-36 50q6 6 21 23.5t25 28.5q31 35 100 89q71 56 124 67q58 12 89 -42q25 -40 38 -130q21 -126 25 -142
q28 -106 38 -134q11 -28 18 -39q8 -11 18 -11q41 0 126 166q42 76 6 124t-112 2q23 127 140 188q104 54 182 8q80 -47 58 -174z" />
    <glyph glyph-name="uniF307" unicode="&#xf307;" horiz-adv-x="990" 
d="M835 690q140 -140 140 -340q0 -197 -140 -339q-139 -141 -340 -141q-198 0 -339 141t-141 339q0 200 141 340q142 140 339 140q200 0 340 -140zM715 444q13 82 -48 94q-61 14 -110 -40q-28 -28 -34 -66q38 24 56 -1t-2 -63q-43 -84 -64 -84q-14 0 -36 94q-2 8 -5 24
t-6.5 35t-4.5 26q-3 16 -7 27t-11 24.5t-18 19t-26 2.5q-26 -6 -59.5 -31.5t-56.5 -50.5l-20 -24l18 -24q7 7 27 17t25 -1q5 -7 37 -113.5t39 -120.5q35 -71 96 -42q53 35 124 120q69 83 86 178z" />
    <glyph glyph-name="uniF308" unicode="&#xf308;" horiz-adv-x="887" 
d="M15 82v536q0 66 47.5 113.5t113.5 47.5h535q66 0 113.5 -47.5t47.5 -113.5v-536q0 -66 -47.5 -113.5t-113.5 -47.5h-195l-1 1v374h99q18 0 18 13l6 92q1 8 -4.5 14t-13.5 6h-105v41q0 25 6.5 32t30.5 7q30 0 65 -8q8 -2 14.5 2.5t7.5 12.5l13 93q3 16 -14 20
q-53 15 -110 15q-174 0 -174 -167v-48h-53q-7 0 -12.5 -5.5t-5.5 -13.5v-96q0 -10 18 -10h53v-374l6 -1h-184q-66 0 -113.5 47.5t-47.5 113.5z" />
    <glyph glyph-name="uniF309" unicode="&#xf309;" horiz-adv-x="950" 
d="M935 636q-37 -56 -94 -98v-24q0 -130 -60 -250q-60 -121 -186 -203q-127 -83 -290 -83q-159 0 -290 84q18 -2 46 -2q131 0 234 80q-64 2 -111.5 39t-64.5 93q9 -4 34 -4q26 0 50 6q-63 13 -106.5 64.5t-43.5 121.5v2q36 -20 84 -24q-84 58 -84 158q0 47 26 94
q155 -189 390 -196q-6 18 -6 42q0 78 55.5 133t134.5 55q82 0 136 -58q58 12 120 44q-19 -66 -82 -104q55 8 108 30z" />
    <glyph glyph-name="uniF30A" unicode="&#xf30a;" horiz-adv-x="990" 
d="M835 690q140 -140 140 -340q0 -197 -140 -339q-139 -141 -340 -141q-198 0 -339 141t-141 339q0 200 141 340q142 140 339 140q200 0 340 -140zM691 438q29 22 46 48q-33 -13 -54 -14q30 18 42 52q-29 -16 -60 -22q-28 28 -70 28q-39 0 -66.5 -28t-27.5 -66q0 -2 1 -11
t1 -11q-121 6 -194 100q-14 -25 -14 -48q0 -49 44 -78q-26 0 -44 12v-2q0 -35 22 -61t54 -31q-15 -4 -24 -4q-10 0 -18 2q19 -66 88 -66q-49 -40 -118 -40h-22q67 -42 144 -42q122 0 196 83t74 187v12z" />
    <glyph glyph-name="uniF30C" unicode="&#xf30c;" horiz-adv-x="530" 
d="M515 644h-142q-16 0 -26 -16.5t-10 -35.5v-102h178v-148h-178v-442h-170v442h-152v148h152v86q0 92 58.5 158t147.5 66h142v-156z" />
    <glyph glyph-name="uniF30D" unicode="&#xf30d;" horiz-adv-x="990" 
d="M835 690q140 -140 140 -340q0 -197 -140 -339q-139 -141 -340 -141t-340 141q-140 142 -140 339q0 200 140 340t340 140t340 -140zM609 500v78h-72q-44 0 -74 -33.5t-30 -80.5v-44h-76v-74h76v-222h86v222h90v74h-90v52q0 28 18 28h72z" />
    <glyph glyph-name="uniF30E" unicode="&#xf30e;" horiz-adv-x="890" 
d="M767 770q44 0 76 -31.5t32 -74.5v-646q0 -44 -32.5 -76t-75.5 -32h-162v310h114v134h-114v70q0 30 28 30h86v152h-96q-74 0 -124 -54.5t-50 -131.5v-66h-104v-134h104v-310h-326q-43 0 -75.5 32t-32.5 76v646q0 43 32 74.5t76 31.5h644z" />
    <glyph glyph-name="uniF315" unicode="&#xf315;" horiz-adv-x="590" 
d="M575 -58q-97 -52 -208 -52q-59 0 -110 16q-51 19 -82 46q-35 30 -46 64q-14 31 -14 96v322h-100v130q107 36 154 130q24 53 30 116h130v-232h216v-144h-216v-236q0 -83 8 -102q11 -25 32 -36q29 -20 68 -20q68 0 138 46v-144z" />
    <glyph glyph-name="uniF316" unicode="&#xf316;" horiz-adv-x="990" 
d="M835 690q140 -140 140 -340q0 -197 -140 -339q-139 -141 -340 -141q-198 0 -339 141t-141 339q0 200 141 340q142 140 339 140q200 0 340 -140zM625 144v74q-36 -24 -70 -24q-17 0 -36 10q-13 8 -14 18q-6 12 -6 52v118h110v74h-110v118h-64q-8 -44 -16.5 -62.5
t-31.5 -37.5q-24 -19 -46 -26v-66h50v-162q0 -52 32 -80q13 -13 40 -24q34 -8 56 -8q57 0 106 26z" />
    <glyph glyph-name="uniF318" unicode="&#xf318;" horiz-adv-x="930" 
d="M219 698q0 -42 -30 -69t-74 -27q-42 0 -71 27.5t-29 68.5q0 43 28.5 69.5t73.5 26.5t72.5 -26.5t29.5 -69.5zM21 526h192v-618h-192v618zM327 328q0 98 -4 198h166l10 -86h4q60 100 190 100q108 0 165 -72t57 -194v-366h-192v342q0 134 -98 134q-69 0 -98 -72
q-6 -12 -6 -48v-356h-194v420z" />
    <glyph glyph-name="uniF319" unicode="&#xf319;" horiz-adv-x="990" 
d="M835 690q140 -140 140 -340q0 -197 -140 -339q-139 -141 -340 -141q-198 0 -339 141t-141 339q0 200 141 340q142 140 339 140q200 0 340 -140zM377 464h-96v-312h96v312zM329 600q-21 0 -36.5 -14t-15.5 -34q0 -48 52 -48t52 48t-52 48zM733 152v184q0 61 -29 98.5
t-83 37.5q-66 0 -96 -50h-2l-6 42h-84q2 -38 2 -100v-212h98v180q0 19 4 24q12 38 50 38q48 0 48 -68v-174h98z" />
    <glyph glyph-name="uniF339" unicode="&#xf339;" horiz-adv-x="950" 
d="M935 132q0 -108 -75 -185t-179 -77q-61 0 -120 32q-56 -8 -80 -8q-182 0 -311 132t-129 320q0 46 10 90q-36 60 -36 134q0 107 74 184q73 76 180 76q75 0 136 -40q34 8 76 8q183 0 310 -132q128 -133 128 -320q0 -49 -10 -96q26 -60 26 -118zM705 130q30 46 30 100
q0 45 -16 80q-17 31 -50 54q-37 23 -76 36q-74 21 -96 26q-97 14 -122 50q-10 10 -10 26q0 24 28 42q26 20 76 20t74 -18q27 -24 38 -50q18 -28 26 -36q17 -12 38 -12q26 0 45 19t19 45q0 19 -14 52q-17 24 -42 48q-27 21 -74 38q-50 14 -102 14q-74 0 -128 -22
q-52 -19 -84 -57t-32 -95q0 -53 28 -90q33 -39 76 -56q48 -22 116 -36q9 -2 80 -20q29 -10 46 -28q18 -14 18 -42q0 -38 -37 -59t-85 -21q-72 0 -100 40q-25 45 -26 46q-7 23 -24 40q-20 14 -40 14q-26 0 -45 -17.5t-19 -42.5q0 -45 30 -85t70 -63q64 -34 158 -34
q78 0 138 24q60 28 88 70z" />
    <glyph glyph-name="uniF33A" unicode="&#xf33a;" horiz-adv-x="990" 
d="M563 276q0 -21 -20 -32.5t-48 -11.5q-19 0 -36 6q-24 13 -34 42q-6 17 -14 22q-8 8 -22 8q-13 0 -26 -10q-10 -10 -10 -24q0 -21 16 -46q42 -56 128 -56q39 0 78 14q36 18 48 40q18 24 18 56q0 27 -9.5 45.5t-29.5 29.5t-37 17t-47 13.5t-45 12.5q-5 2 -11.5 4t-8.5 3
t-5.5 3.5t-8.5 7.5q-6 6 -6 16q0 15 18 24.5t40 9.5q32 0 42 -10q12 -10 22 -28q6 -12 14 -20q11 -6 22 -6q14 0 24 10t10 24t-6 30q-5 9 -24 28q-21 15 -42 20q-24 8 -56 8q-86 0 -120 -46q-18 -22 -18 -50q0 -30 16 -52q20 -20 42 -32q49 -17 89 -25q33 -7 47 -21
q10 -7 10 -24zM835 690q140 -140 140 -340q0 -197 -140 -339q-139 -141 -340 -141q-198 0 -339 141t-141 339q0 200 141 340q142 140 339 140q200 0 340 -140zM611 82q58 0 100 43.5t42 102.5q0 35 -16 66q6 28 6 54q0 104 -72 178t-174 74q-24 0 -42 -2q-34 22 -74 22
q-59 0 -101.5 -43.5t-42.5 -102.5q0 -39 20 -76q-4 -15 -4 -50q0 -104 72 -178t172 -74q34 0 46 4q30 -18 68 -18z" />
    <glyph glyph-name="uniF342" unicode="&#xf342;" horiz-adv-x="889" 
d="M786 610q88 -43 88 -162q0 -130 -110 -210q-107 -80 -306 -80h-30q-17 0 -32.5 -12.5t-19.5 -27.5l-36 -156q-12 -42 -52 -42h-106q-17 0 -27.5 12.5t-6.5 29.5l6 24h68q17 0 32.5 13.5t19.5 28.5l36 156q10 40 52 40h30q196 0 306 80q110 83 110 210q0 56 -22 96z
M206 94q-2 -15 -18 -28.5t-32 -13.5h-108q-17 0 -26.5 12.5t-5.5 29.5l150 646q10 40 52 40h224q75 0 126 -8q58 -13 94 -34q35 -23 58 -62q20 -38 20 -96q0 -130 -110 -210q-107 -80 -304 -80h-32q-16 0 -32 -12.5t-18 -27.5zM294 468q-4 -16 6.5 -28t25.5 -12h28
q86 0 134 36q48 34 48 98q0 47 -32 65.5t-92 18.5h-34q-42 0 -52 -40z" />
    <glyph glyph-name="uniF510" unicode="&#xf510;" horiz-adv-x="690" 
d="M655 396q14 0 24.5 -9.5t10.5 -23.5v-393q0 -5 -1.5 -9t-3 -7t-6.5 -6l-7 -3q-2 -1 -8.5 -4t-8.5 -4q-32 -14 -101 -31q-98 -25 -209 -25q-153 0 -310 56q-35 12 -35 33v393q0 14 10.5 23.5t24.5 9.5h45v149q0 112 76 193t189 81t189 -81t76 -193v-149h45zM345 696
q-58 0 -98.5 -45t-40.5 -106v-149h278v149q0 61 -40.5 106t-98.5 45zM234 62q0 -11 8.5 -19.5t19.5 -8.5q13 0 20 8l63 63l63 -63q7 -8 19 -8q11 0 19.5 8.5t8.5 19.5q0 12 -8 19l-63 63l63 63q8 8 8 20q0 11 -8.5 19.5t-19.5 8.5q-10 0 -19 -9l-63 -63l-63 63q-9 9 -20 9
t-19.5 -8.5t-8.5 -19.5t9 -20l63 -63l-63 -63q-9 -9 -9 -19z" />
    <glyph glyph-name="uniF512" unicode="&#xf512;" horiz-adv-x="689" 
d="M655 398q14 0 24 -10t10 -24v-394q0 -6 -1.5 -10.5t-6.5 -8.5t-7 -5l-10 -5l-9 -4q-55 -22 -144.5 -39t-166.5 -17q-150 0 -310 56q-34 12 -34 33v394q0 14 10 24t24 10h46v148q0 111 76 192q77 81 189 81q113 0 189 -81q75 -80 75 -192v-148h46zM206 398h277v148
q0 61 -40 105t-98 45q-59 -1 -99 -45t-40 -105v-148z" />
    <glyph glyph-name="uniF513" unicode="&#xf513;" horiz-adv-x="1006" 
d="M0 359v187q0 111 74 192q76 81 186 81q111 0 185 -81q74 -79 74 -192v-148h453q14 0 24 -10t10 -24v-394q0 -4 -1 -8t-3.5 -7t-4 -4.5t-5.5 -4t-6 -3.5t-7.5 -3t-6.5 -3q-20 -8 -101 -30q-102 -26 -210 -26q-153 0 -310 56q-35 12 -35 33v394q0 14 10.5 24t24.5 10h45
v148q0 60 -39.5 105t-96.5 45q-58 0 -97 -45t-39 -105v-46l-61 -72h61v-69l-60 -45z" />
    <glyph glyph-name="u1F304" unicode="&#x1f304;" 
d="M253 518q-52 0 -90 -39t-38 -91v-160l-108 296q-11 38 22 52l680 248q36 11 50 -24l102 -282h-100l-124 150l-214 -150h-180zM977 428q16 0 27 -12t11 -28v-472q0 -16 -11 -28t-27 -12h-724q-16 0 -27 12t-11 28v472q0 16 11 28t27 12h724zM921 -24v162l-72 160l-166 -60
l-130 -132l-138 170l-92 -214v-86h598z" />
    <glyph glyph-name="u1F30E" unicode="&#x1f30e;" horiz-adv-x="990" 
d="M835 689q140 -142 140 -339q0 -200 -140 -340t-340 -140q-197 0 -339 140q-141 140 -141 340q0 198 141 339t339 141q201 0 340 -141zM827 589q-79 107 -202 149q-18 -24 -16 -32q5 -38 18 -51t30 -7l32 12q7 1 20 2q23 -24 0 -47q-21 -21 -45 -56q-23 -34 -1 -77
q34 -64 96 -64q28 -1 43 -36q16 -36 17 -66q10 -79 -14 -140q-23 -44 14 -76q86 113 86 250q0 132 -78 239zM373 50q10 0 11.5 23t-2 57t-3.5 36q0 30 14 74q12 41 59 70q48 29 55 46q25 52 -8 104q-18 28 -75 45q-42 13 -59 13q-13 5 -38.5 7t-39.5 -3q-10 -4 -27 11
t-17 29q0 10 15 27q6 7 31 32.5t32 34.5q10 18 39 37q9 6 23 17.5t29 20.5q22 14 27 23q-114 -15 -200.5 -86t-125.5 -172q4 0 14 -1t21 -2.5t15 -1.5q58 -5 62 -25q4 -11 -14 -45q-18 -33 -18 -61q0 -30 38 -56t38 -46q0 -25 8 -68t8 -44q0 -12 36 -54t52 -42zM367 -40
q68 -20 128 -20q128 0 226 68q-26 45 -118 34q-23 -1 -65 -17q-44 -16 -47 -17q-71 -16 -76 -16q-7 -1 -16 -7t-19.5 -15t-12.5 -10z" />
    <glyph glyph-name="u1F310" unicode="&#x1f310;" horiz-adv-x="730" 
d="M28 205q0 19 12.5 33t27.5 12q20 0 35 -15q71 -71 165 -85h100q94 14 165 85q90 90 90 215q0 126 -90 216l-30 34l135 130q12 16 30 16t30 -16q16 -10 15.5 -30t-15.5 -30l-70 -74q85 -111 85 -246q0 -155 -115 -280q-106 -96 -230 -110v-60h200q50 0 50 -50t-50 -50
h-500q-50 0 -50 50t50 50h200v60q-123 14 -230 110q-10 11 -10 35zM73 450q0 100 72 172q73 74 173 74t173 -74q72 -72 72 -172t-72 -172q-73 -73 -173 -73t-173 73q-72 72 -72 172z" />
    <glyph glyph-name="u1F342" unicode="&#x1f342;" horiz-adv-x="970" 
d="M251 646q182 107 506 66q169 -23 196 -50q4 -5 -2 -10q-76 -40 -130 -109t-78 -132q-23 -61 -65 -132q-40 -69 -93 -105q-137 -96 -382 -4q-67 -78 -114 -176q-12 -24 -47 -7t-25 39q43 100 129 193q87 95 176 153q179 119 317 174l54 20q-65 0 -148.5 -15.5
t-144.5 -37.5q-70 -25 -162 -84q-89 -57 -161 -141q-23 242 174 358z" />
    <glyph glyph-name="u1F378" unicode="&#x1f378;" horiz-adv-x="926" 
d="M15 746q0 33 55 33h786q55 0 55 -33q0 -19 -24 -43l-352 -353v-429h178q14 0 25 -10.5t11 -24.5t-11 -25t-25 -11h-500q-14 0 -25 11t-11 25t11 24.5t25 10.5h179v429l-353 353q-24 24 -24 43z" />
    <glyph glyph-name="u1F381" unicode="&#x1f381;" horiz-adv-x="887" 
d="M54 277q-39 0 -39 19v179q0 7 5.5 12.5t12.5 5.5h245q-52 0 -88.5 36.5t-36.5 88.5t36.5 88.5t88.5 36.5q61 0 94 -43l72 -92l71 92q33 43 94 43q52 0 88.5 -36.5t36.5 -88.5t-36.5 -88.5t-88.5 -36.5h245q8 0 13 -5.5t5 -12.5v-179q0 -19 -38 -19q-4 0 -17 1t-16 1v-233
q0 -22 -15.5 -37.5t-38.5 -15.5h-607q-23 0 -38.5 15.5t-15.5 37.5v233q-3 0 -15.5 -1t-16.5 -1zM225 618q0 -23 15.5 -38.5t37.5 -15.5h109l-70 90q-13 17 -39 17q-22 0 -37.5 -15.5t-15.5 -37.5zM354 93q0 -14 10.5 -21.5t25.5 -7.5h107q15 0 25.5 7.5t10.5 21.5v400h-179
v-400zM500 564h109q22 0 37.5 15.5t15.5 38.5q0 22 -15 37.5t-38 15.5q-26 0 -39 -17z" />
    <glyph glyph-name="u1F3A5" unicode="&#x1f3a5;" horiz-adv-x="1101" 
d="M15 154v392q0 66 47.5 113.5t113.5 47.5h393q66 0 113 -47.5t47 -113.5v-171l327 327q9 9 19.5 4t10.5 -17v-678q0 -18 -17 -18q-6 0 -13 5l-327 327v-171q0 -66 -47 -113.5t-113 -47.5h-393q-66 0 -113.5 47.5t-47.5 113.5z" />
    <glyph glyph-name="u1F3AC" unicode="&#x1f3ac;" horiz-adv-x="1010" 
d="M955 700q17 0 28.5 -11.5t11.5 -28.5v-60h-100v-100h100v-100h-100v-100h100v-100h-100v-100h100v-60q0 -16 -12 -28t-28 -12h-900q-16 0 -28 12t-12 28v60h100v100h-100v100h100v100h-100v100h100v100h-100v60q0 17 11.5 28.5t28.5 11.5h900zM395 200l250 150l-250 150
v-300z" />
    <glyph glyph-name="u1F3C9" unicode="&#x1f3c9;" horiz-adv-x="959" 
d="M336 64q34 0 53 19.5t19 52.5q0 55 -38 90q-26 20 -53 53q-127 6 -216 79q-86 71 -86 153v71q0 22 15.5 38t38.5 16h160v53q0 37 26.5 63.5t63.5 26.5h321q37 0 63 -26.5t26 -63.5v-53h161q22 0 38 -16t16 -38v-71q0 -82 -86 -153q-89 -73 -217 -79q-27 -33 -53 -53
q-37 -34 -37 -90q0 -33 18.5 -52.5t52.5 -19.5q42 0 74.5 -25.5t32.5 -63.5v-36q0 -7 -5.5 -12.5t-12.5 -5.5h-464q-7 0 -12.5 5.5t-5.5 12.5v36q0 38 32.5 63.5t74.5 25.5zM139 420q52 -46 132 -63q-42 90 -42 207h-143v-53q0 -44 53 -91zM688 357q79 17 131 63
q53 47 53 91v53h-143q0 -119 -41 -207z" />
    <glyph glyph-name="u1F44D" unicode="&#x1f44d;" horiz-adv-x="830" 
d="M655 467q55 -7 108 -24q52 -16 52 -47q0 -74 -61 -284q-62 -212 -107 -212q-144 0 -288 42t-144 88v342q0 14 15 34q21 29 99 86q30 22 108 74q52 36 104 100q13 16 31.5 39t31.5 38.5t22 26.5q31 37 41 26q48 -77 29 -137q-20 -62 -59 -119q-40 -58 -40 -60q1 -5 58 -13
zM165 476q14 0 0 -14q-50 -50 -50 -104v-318q0 -51 52 -104q10 -10 -2 -10q-41 0 -66 12t-51 41q-33 37 -33 99v242q0 62 33 100q34 38 63 47q30 9 54 9z" />
    <glyph glyph-name="u1F44E" unicode="&#x1f44e;" horiz-adv-x="830" 
d="M176 231q-56 7 -108 24q-53 17 -53 47q0 70 62 285q61 213 106 213q146 0 288 -43q144 -43 144 -89v-342q0 -23 -33 -54q-34 -33 -74 -61q-53 -38 -82 -57l-33 -22q-52 -36 -104 -100q-13 -16 -31.5 -39t-31.5 -38.5t-22 -26.5q-31 -37 -41 -26q-48 77 -29 137
q20 62 59 119q40 58 40 60q-1 5 -57 13zM665 222q-12 0 2 14q48 50 48 104v318q0 51 -52 104q-10 10 2 10q41 0 66 -12t51 -41q33 -37 33 -99v-242q0 -94 -63 -129q-47 -27 -87 -27z" />
    <glyph glyph-name="u1F464" unicode="&#x1f464;" horiz-adv-x="970" 
d="M751 128q204 -72 204 -122v-106h-940v106q0 50 204 122q93 34 128 69q34 34 34 95q0 23 -22 49q-21 26 -32 73q-3 21 -23 26q-18 5 -23 60q0 32 14 38l4 4q-7 46 -12 88q-4 53 41 112q45 58 157 58t158 -58t40 -112l-12 -88q18 -8 18 -42q-5 -55 -23 -60q-20 -5 -23 -26
q-7 -47 -31 -74q-23 -26 -23 -48q0 -60 35 -95q34 -34 127 -69z" />
    <glyph glyph-name="u1F465" unicode="&#x1f465;" 
d="M791 -90v150q0 54 -30 81q-32 29 -154 89q40 30 40 84q0 17 -13 33t-19 51q-2 8 -14 16q-13 8 -14 42q0 24 12 30q-10 40 -8 73.5t23 64.5q27 40 95 40t96 -40q29 -40 24 -78l-8 -60q12 -6 12 -30q-1 -34 -14 -42q-12 -8 -14 -16q-6 -35 -19 -51t-13 -33q0 -42 21 -66
t77 -48q113 -47 130 -80q6 -7 9 -61q4 -71 5 -101v-48h-224zM527 172q182 -78 182 -124v-138h-694v184q0 44 84 78q73 30 104 64q28 31 28 88q0 21 -19 44t-25 68q-1 10 -18 22q-15 11 -20 56q0 26 10 36l4 2q-2 18 -5 46l-5 36q-5 50 33 103t127 53t127 -53t33 -103
l-10 -82q14 -8 14 -38q-5 -45 -20 -56q-17 -12 -18 -22q-6 -45 -25 -68t-19 -44q0 -57 28 -88q31 -34 104 -64z" />
    <glyph glyph-name="u1F4A1" unicode="&#x1f4a1;" horiz-adv-x="730" 
d="M224 -6h282v-104q-70 -42 -142 -40q-70 -1 -140 40v104zM230 54q0 69 -34.5 136.5t-79.5 116.5q-45 47 -75.5 114t-24.5 137q7 119 94 206q86 86 254 86q169 0 255 -86q84 -84 95 -206q7 -108 -68 -209q-10 -13 -32.5 -42t-34 -45t-28 -42.5t-27.5 -51.5
q-24 -54 -24 -114h-270zM122 550q-3 -2 0 -20.5t2 -19.5q-1 -2 5 -19t6 -18t2.5 -7t6 -12t6.5 -12l4 -6q1 -2 13.5 -19t13.5 -19t15 -22t16 -22q88 -120 112 -212h82q24 94 112 212q1 1 13 18l24 34q12 17 13 19q29 46 33 62q9 37 7 63q-16 196 -244 196q-226 0 -242 -196z
" />
    <glyph glyph-name="u1F4B3" unicode="&#x1f4b3;" horiz-adv-x="1101" 
d="M104 -79q-37 0 -63 26.5t-26 63.5v678q0 37 26 63.5t63 26.5h893q37 0 63 -26.5t26 -63.5v-678q0 -37 -26 -63.5t-63 -26.5h-893zM86 11q0 -7 5 -12.5t13 -5.5h893q7 0 12.5 5.5t5.5 12.5v339h-929v-339zM104 707q-8 0 -13 -5.5t-5 -12.5v-125h929v125q0 7 -5.5 12.5
t-12.5 5.5h-893zM158 136h143v-72h-143v72zM372 64v72h214v-72h-214z" />
    <glyph glyph-name="u1F4B5" unicode="&#x1f4b5;" horiz-adv-x="1163" 
d="M950 776q36 -80 105 -227t90 -191q-103 0 -199.5 -42t-176.5 -103t-160 -122.5t-182.5 -110t-212.5 -56.5q-33 70 -98 209t-97 209q76 0 149 24t134.5 62t121.5 84.5t120.5 92.5t122 84.5t134.5 62.5t149 24zM549 140q-70 28 -104.5 102t-22.5 169q-154 -112 -283 -135
q21 -46 63.5 -136t63.5 -136q132 25 283 136zM614 559q70 -24 105 -101t21 -169q151 111 285 135q-25 51 -68 144t-59 128q-136 -25 -284 -137zM368 119q-7 -4 -22 -7q-5 29 -6 40q5 0 10 3q2 -6 8.5 -18t9.5 -18zM395 141q-7 5 -33 24l6 10q14 -6 38 -13q-7 -14 -11 -21z
M311 119q-9 1 -21 11q5 5 13.5 14.5t12.5 14.5q4 -4 9 -5q-3 -6 -8 -19t-6 -16zM401 221h1q3 -7 6 -22q-18 -5 -39 -9q0 8 -3 10v1q20 10 35 20zM269 158q-7 11 -8 22q29 0 43 1q0 -1 2 -9q-10 -4 -37 -14zM356 212q-1 0 -4 3t-4 3q3 13 13 38q9 -1 19 -10q-4 -6 -12 -17
t-12 -17zM305 196l-37 15q3 13 11 20q5 -3 15.5 -12t15.5 -13q-2 -7 -5 -10zM305 252q15 6 23 7q0 -7 2 -20.5t2 -19.5q-8 -3 -10 -4q-2 6 -8 18.5t-9 18.5zM812 455q-8 -4 -20 -11q-7 16 -20.5 47t-21.5 47q6 4 19 11q35 -71 43 -94zM900 498q-9 -4 -20 -8q-20 45 -44 91
q3 1 9.5 4.5t10.5 4.5q8 -18 23.5 -49t20.5 -43zM856 478q-6 14 -13.5 30t-17 34.5t-14.5 28.5q-3 -1 -9 -5t-10 -5q26 -51 44 -92q4 1 11 4t9 5z" />
    <glyph glyph-name="u1F4BC" unicode="&#x1f4bc;" 
d="M104 -79q-37 0 -63 26.5t-26 63.5v268h375v-90q0 -14 11 -24.5t25 -10.5h178q14 0 25 10.5t11 24.5v90h375v-268q0 -37 -26 -63.5t-63 -26.5h-822zM926 636q37 0 63 -26.5t26 -63.5v-214h-1000v214q0 37 26 63.5t63 26.5h197v89q0 23 15.5 38.5t37.5 15.5h322
q22 0 37.5 -15.5t15.5 -38.5v-89h197zM658 636v71h-286v-71h286zM444 207v72h142v-72h-142z" />
    <glyph glyph-name="u1F4D1" unicode="&#x1f4d1;" horiz-adv-x="580" 
d="M515 850q19 0 34.5 -15t15.5 -35v-850l-150 180v620q0 20 -15.5 35t-34.5 15h-100q0 50 40 50h210zM265 700q19 0 34.5 -15t15.5 -35v-800l-150 180l-150 -180v800q0 50 40 50h210z" />
    <glyph glyph-name="u1F4D5" unicode="&#x1f4d5;" horiz-adv-x="959" 
d="M21 96q0 2 2.5 23.5t-0.5 23.5q-3 10 -0.5 18t11.5 18.5t10 12.5q33 56 42 102q1 2 0.5 16.5t-0.5 16.5q1 3 9.5 14.5t9.5 13.5q43 75 36 119q-4 7 -0.5 14.5t4.5 9t9 9.5q20 19 36 60q14 33 15 54q0 2 -2 14t-1 15q1 5 5.5 11t11 13.5t8.5 9.5q5 7 20 42t32 46
q14 10 47 3l-1 -1q23 5 28 5h425q40 0 63 -31t11 -73l-153 -506q-19 -64 -40 -85q-20 -20 -72 -20h-485q-33 0 -21 -32q13 -39 80 -39h515q17 0 31.5 9t19.5 23l167 550q5 12 3 32q27 -11 40 -37t3 -59l-154 -505q-10 -34 -41.5 -59.5t-69.5 -25.5h-515q-45 0 -84 32t-54 72
q-13 37 -1 71zM290 439q-5 -18 12 -18h339q17 0 24 18l12 36q2 7 -1.5 12.5t-11.5 5.5h-339q-16 0 -23 -18zM336 582q-5 -18 12 -18h340q16 0 23 18l12 36q5 18 -12 18h-340q-16 0 -23 -18z" />
    <glyph glyph-name="u1F4DE" unicode="&#x1f4de;" horiz-adv-x="816" 
d="M15 589q0 52 28 104q31 56 60 68q39 18 77 18q6 0 12 -2q8 -3 46 -73q23 -42 47 -79q16 -24 16 -36t-16 -28q-11 -12 -35 -31t-34 -29q-16 -15 -16 -25q0 -9 3 -17t10 -18.5t8 -12.5q43 -77 97.5 -131.5t131.5 -97.5q1 -1 12.5 -8t19.5 -10t16 -3q11 0 25 15
q10 10 29.5 34.5t31.5 35.5q16 16 28 16q13 0 49 -26q15 -9 49 -28t47 -26q39 -20 42 -29q2 -6 2 -12q0 -39 -18 -78q-12 -28 -68 -59q-52 -28 -103 -28q-21 0 -42.5 4t-35.5 9t-36.5 13.5t-32.5 11.5q-51 18 -97 47q-69 43 -147 121t-121 147q-30 47 -68 156q-17 49 -17 87
z" />
    <glyph glyph-name="u1F4E3" unicode="&#x1f4e3;" 
d="M104 279q-37 0 -63 26t-26 63v107q0 37 26 63t63 26h268q241 0 500 215q28 0 50 -21.5t22 -50.5v-214q29 0 50 -21.5t21 -50.5t-21 -50t-50 -21v-214q0 -28 -22 -50t-50 -22q-233 194 -453 212q-30 -10 -49.5 -35t-18.5 -58q1 -29 22 -51q-12 -20 -12 -41t5.5 -35
t23.5 -32.5t26 -25t28 -22.5q-24 -47 -106 -54t-124 32q-3 10 -22 66.5t-25 85.5q-21 92 5 173h-68zM444 346q211 -24 428 -190v532q-221 -169 -428 -191v-151z" />
    <glyph glyph-name="u1F4F7" unicode="&#x1f4f7;" 
d="M515 450q63 0 106.5 -44t43.5 -106t-44.5 -106t-105.5 -44t-105.5 44t-44.5 106t44.5 106t105.5 44zM915 600q42 0 71 -29t29 -71v-450q0 -41 -29.5 -70.5t-70.5 -29.5h-800q-40 0 -70 30t-30 70v450q0 41 29.5 70.5t70.5 29.5h120q28 0 40 30l30 92q10 28 40 28h340
q30 0 40 -28l30 -92q12 -30 40 -30h120zM692 123q73 73 73 177t-73 177t-177 73t-177 -73t-73 -177t73 -177t177 -73t177 73zM881 430q14 0 24 11t10 25t-10 24t-24 10q-36 0 -36 -34q0 -15 10.5 -25.5t25.5 -10.5z" />
    <glyph glyph-name="u1F50D" unicode="&#x1f50d;" horiz-adv-x="819" 
d="M787 78q30 -34 6 -62l-46 -46q-36 -32 -68 0l-190 190q-73 -42 -156 -42q-128 0 -223 95t-95 223t90 219t218 91q127 0 224 -95q96 -95 96 -223q0 -89 -46 -162zM109 436q0 -88 68 -156t156 -68t151 63t63 153q0 87 -68 155q-67 67 -156 67q-88 0 -151 -63t-63 -151z" />
    <glyph glyph-name="u1F511" unicode="&#x1f511;" horiz-adv-x="969" 
d="M220 207q-91 0 -148 57t-57 148q0 97 56 181.5t135 132.5q86 53 175 53q91 0 148 -57.5t57 -148.5q0 -106 -73 -203l198 -199l54 54q-50 50 -55 56q-9 11 -9 15q0 8 28 36.5t36 28.5q7 0 13 -6q15 -15 50 -48.5t62 -61t48 -51.5q16 -17 16 -23q0 -8 -28 -36t-36 -28
t-36 28q-4 4 -18 18.5t-17 17.5l-54 -53l123 -123q15 -15 15 -38t-22 -45t-45 -22q-22 0 -38 16l-374 374q-97 -73 -204 -73zM122 421q0 -44 31.5 -75.5t75.5 -31.5t75.5 31.5t31.5 75.5q0 26 -10 47q24 -11 46 -11q44 0 75.5 31.5t31.5 75.5t-31.5 75.5t-75.5 31.5
t-75.5 -31.5t-31.5 -75.5q0 -22 11 -46q-24 11 -47 11q-44 0 -75.5 -32t-31.5 -76z" />
    <glyph glyph-name="u1F512" unicode="&#x1f512;" horiz-adv-x="730" 
d="M655 476q20 0 40 -19.5t20 -40.5v-390q0 -48 -48 -66l-60 -18q-41 -16 -96 -16h-290q-57 0 -98 16l-60 18q-48 18 -48 66v390q0 22 15 41t35 19h100v70q0 108 50.5 169t149.5 61t149.5 -61t50.5 -169v-70h90zM265 566v-90h200v90q0 50 -26.5 80t-73.5 30t-73.5 -30
t-26.5 -80z" />
    <glyph glyph-name="u1F513" unicode="&#x1f513;" horiz-adv-x="730" 
d="M655 450q19 0 39.5 -20t20.5 -40v-390q0 -21 -14.5 -40t-33.5 -24l-60 -20q-51 -16 -96 -16h-290q-47 0 -98 16l-60 20q-19 5 -33.5 24t-14.5 40v390q0 22 15 41t35 19h400v140q0 110 -100 110t-100 -110v-40h-100v20q0 108 50.5 169t149.5 61q200 0 200 -230v-120h90z
" />
    <glyph glyph-name="u1F516" unicode="&#x1f516;" horiz-adv-x="744" 
d="M15 -3v719q0 26 19 44.5t46 18.5h585q27 0 45.5 -18.5t18.5 -44.5v-719q0 -27 -18 -44.5t-46 -17.5q-27 0 -47 18l-246 236l-246 -236q-21 -19 -46 -19q-27 0 -46 18.5t-19 44.5z" />
    <glyph glyph-name="u1F517" unicode="&#x1f517;" horiz-adv-x="941" 
d="M62 713l82 82q46 46 114 46t114 -47l115 -116q46 -46 46 -113q0 -69 -49 -117l49 -49q48 49 116 49q67 0 114 -47l116 -116q47 -47 47 -114t-48 -113l-82 -81q-47 -47 -113 -47q-67 0 -114 48l-115 115q-46 46 -46 114t49 116l-49 49q-48 -49 -116 -49q-67 0 -114 47
l-116 116q-47 47 -47 114t47 113zM345 564q11 0 21.5 -5t14.5 -8t15 -15l12 -12q18 18 18 41t-15 38l-115 115q-16 16 -38 16t-38 -15l-82 -82q-16 -16 -16 -37q0 -22 16 -38l116 -116q15 -15 38 -15q24 0 40 17q-2 2 -10 9t-11.5 11.5t-8.5 11.5t-7.5 14.5t-2.5 16.5
q0 23 15 38t38 15zM514 207q0 -22 16 -38l115 -116q15 -15 38 -15t38 15l82 81q16 16 16 37q0 22 -16 38l-116 116q-16 16 -38 16q-23 0 -40 -18q1 -1 12 -11t14.5 -15t8.5 -15t5 -21q0 -23 -15.5 -38.5t-38.5 -15.5q-11 0 -21 5t-15 8.5t-15 14.5t-11 12q-19 -19 -19 -40z
" />
    </font>
</defs>
</svg>
